<svg version="1.0" xmlns="http://www.w3.org/2000/svg" width="830pt" height="830pt" viewBox="0 0 830 830"><g transform="translate(0.000000,830.000000) scale(0.100000,-0.100000)" fill="#000" stroke="none"><path d="M7680 7152c-34-18-89-86-398-492-65-85-383-501-707-925-324-423-691-904-816-1067l-227-297-20 24c-11 13-18 25-16 28 2 2-2 10-11 17-8 7-15 19-15 26 0 8-4 14-10 14-5 0-10 6-10 14 0 7-8 20-17 27-14 12-16 12-8 0 5-9 4-12-3-7-6 4-9 12-6 19 6 16-53 110-65 102-5-3-13 0-17 6-5 8-3 9 5 4 9-5 12-2 9 11-2 11-8 19-15 19-6 0-15 4-20 9-5 5-3 6 5 2 6-4 12-5 12-1 0 13-51 85-61 85-5 0-8 3-6 8 2 4-13 34-34 67-21 33-62 1e2-90 149-29 48-59 90-66 93-7 3-10 9-7 14 3 5 0 9-7 9-7 0-10 3-7 6 5 4-38 78-69 120-14 18-32 48-49 81-9 18-22 37-30 44-8 6-14 15-14 20 0 5-26 49-57 98-32 49-89 139-128 201-119 189-129 205-137 208-5 2-8 9-8 16 0 7-10 24-22 38-13 14-24 30-26 37-5 25-113 182-121 176-5-3-11-1-13 4-1 5-12 10-23 11-46 5-72-1-99-25-24-21-27-27-16-40 11-13 10-14-3-10-17 7-51-50-40-68 3-6 1-7-5-3-6 4-26-21-48-61-20-38-44-76-53-87-9-10-16-21-15-25 1-3-9-22-21-41-34-54-52-120-32-120 8 0 8-3 0-11-9-9-9-18 0-38 20-47 54-91 63-83 5 4 6 3 2-2-7-8 24-70 41-86 4-3 14-18 23-35 10-16 22-29 27-28 6 2 8-3 6-10-3-6 11-36 30-65 19-30 35-56 35-59 0-6 61-95 77-111 7-7 16-24 19-38 3-13 10-24 15-24 5 0 9-6 9-14 0-8 3-16 8-18 4-1 15-16 24-33 10-18 24-29 35-28 10 1 12 0 6-3-18-8-16-17 5-40 10-10 20-23 22-29 3-10 25-47 77-127 15-24 33-55 40-70 7-16 16-28 22-28 5 0 14-15 20-32 10-27 14-30 22-18 9 12 10 12 5-3-7-21 17-61 29-49 5 4 5 2 2-5-4-6-1-18 7-26 8-8 13-17 10-20-3-3 6-13 20-22 14-10 23-22 19-31-3-7 2-17 11-20 9-3 14-10 11-14-3-5 2-15 10-23 8-9 15-18 15-21 0-14 64-105 71-1e2 5 3 6-1 4-8-3-8 3-23 14-35 11-11 17-24 14-27-4-3-1-6 5-6 7 0 12-5 12-10 0-6 25-50 56-98 104-160 121-187 139-219 10-18 21-30 25-28 3 2 6-7 5-20 0-22-29-62-250-349-41-52-82-95-97-1e2-30-11-78 5-94 32-7 9-157 249-334 532-177 283-337 535-355 560-17 25-35 53-38 63-4 11-12 15-18 11-8-4-9-3-5 4 7 11-46 99-68 114-6 4-8 8-3 8 4 0-18 38-48 85-30 47-55 90-55 95 0 6-4 10-10 10-5 0-10 6-10 13-1 18-49 50-66 43-9-3-12-1-9 4 8 13-10 13-56 0-31-9-43-23-92-105-31-52-57-99-57-104 0-5-7-14-15-21-9-7-14-18-12-23 2-6-8-21-21-34-14-14-21-30-18-39 3-8 2-13-3-10-8 5-36-40-106-172-16-32-33-58-37-60-5-2-8-8-8-14 0-5-10-24-22-41-13-18-23-34-23-37 0-3-30-54-66-115-36-60-79-135-96-165-16-30-44-79-62-108-17-29-31-57-31-63 0-5-7-12-15-15-8-4-13-10-10-14 3-5 1-11-4-15-6-3-7-13-4-22 4-10 2-14-4-10-11 7-56-57-56-80 0-7-4-13-8-13-4 0-10-9-14-19-3-11-17-36-30-55-48-71-86-147-79-159 4-6 4-9-1-5-11 10-26-9-68-85-21-38-34-73-31-79 4-6 3-8-3-5-6 4-16-6-22-21-7-15-11-28-9-29 1-1-6-9-17-17-11-8-17-18-13-21 4-4-1-15-11-24-11-9-32-41-49-72-23-43-27-60-19-69 9-8 8-10-6-4-13 5-20 1-24-15-3-11-9-21-14-21-5 0-9-5-9-11 0-6-9-24-21-40-11-16-18-36-15-44 3-8 1-14-3-12-5 1-10-2-11-8-1-5-8-14-16-18-8-5-12-12-9-18 4-5 2-9-3-9-6 0-15-12-21-27-6-16-25-50-41-76-17-27-27-53-24-59 4-6 3-8-3-5-5 3-19-11-30-31-11-20-53-92-92-160-63-107-71-125-59-140 12-15 11-16-4-4-18 14-34 0-22-20 4-7 3-8-4-4-12 7-17-24-12-68 5-47 68-94 110-83 11 3 23 1 26-4 3-5 13-5 24 1 10 6 21 6 24 2 5-9 1e2-7 116 3 5 3 10 1 10-5 0-8 7-9 18-5 9 4 31 7 47 6 146-5 198 1 243 32 20 13 44 37 52 53 8 16 21 35 28 42 7 8 10 18 7 23-4 5-1 9 5 9 6 0 8 5 5 10-3 6-1 10 5 10 6 0 15 10 20 23 6 12 19 37 31 56 16 27 18 36 7 43-10 8-9 9 4 5 20-7 62 58 53 82-3 8-3 12 1 9 7-7 34 23 47 52 4 8 18 33 31 55 13 22 22 43 20 46-2 4 3 9 11 13 8 3 15 12 15 21 0 8 5 15 11 15 6 0 9 6 6 14-3 8 1 17 9 20 9 3 12 10 9 16-3 5-1 10 4 10 6 0 11 7 11 15 0 8 4 15 8 15 8 0 44 67 39 73-1 1 4 9 11 17 32 38 63 94 58 106-3 8-1 13 5 11 5-1 19 16 32 38 12 22 25 42 30 43 4 2 5 8 1 13-3 5 0 9 6 9 6 0 8 5 5 10-4 6-10 8-15 5-5-3-11-1-15 4-3 6 5 8 20 5 18-3 25 0 25 11 0 8 4 15 9 15 5 0 14 12 20 28 6 15 26 52 45 83 26 43 31 60 23 68-9 9-8 11 6 5 13-5 20 1 28 25 6 17 15 31 20 31 5 0 8 3 7 8-2 4 8 24 20 44 13 21 20 43 16 50-4 7-4 10 1 6 11-10 35 10 35 29 0 8 6 21 14 29 8 7 16 19 19 26 2 7 6 11 9 8 3-3 75-115 160-250 85-135 235-371 333-525 98-154 227-359 288-455 124-197 155-234 206-252 26-8 162-11 476-12 477 0 470 0 525 56 12 13 233 388 491 834 257 445 497 859 533 919 35 61 129 223 208 360 248 429 1259 2175 1489 2571 73 126 78 167 25 220l-34 34h-259c-232 0-262-2-293-18zM4385 6131c3-5 2-12-3-15-5-3-9 1-9 9 0 17 3 19 12 6zm-81-9c3-5-1-9-9-9-8 0-12 4-9 9 3 4 7 8 9 8 2 0 6-4 9-8zm27-59c13-16 12-17-3-4-10 7-18 15-18 17 0 8 8 3 21-13zm59-17c0-3-4-8-10-11-5-3-10-1-10 4 0 6 5 11 10 11 6 0 10-2 10-4zm-163-51c0-8-4-12-9-9-5 3-6 10-3 15 9 13 12 11 12-6zm203 5c0-5-2-10-4-10-3 0-8 5-11 10-3 6-1 10 4 10 6 0 11-4 11-10zm-1e2-14c0-2-7-7-16-10-8-3-12-2-9 4 6 10 25 14 25 6zm60-26c0-5-5-10-11-10-5 0-7 5-4 10 3 6 8 10 11 10 2 0 4-4 4-10zm-220-20c0-5-2-10-4-10-3 0-8 5-11 10-3 6-1 10 4 10 6 0 11-4 11-10zm95-20c3-5 1-10-4-10-6 0-11 5-11 10 0 6 2 10 4 10 3 0 8-4 11-10zm158-55c-7-21-12-19-10 4 0 11 5 18 9 15 4-3 5-11 1-19zm44 3c2-17 0-19-7-8-5 8-6 18-4 22 8 12 10 10 11-14zm43 16c0-8-19-13-24-6-3 5 1 9 9 9 8 0 15-2 15-3zm-380-20c0-8-19-13-24-6-3 5 1 9 9 9 8 0 15-2 15-3zm440-4c0-5-5-10-11-10-5 0-7 5-4 10 3 6 8 10 11 10 2 0 4-4 4-10zm-63-15c0-8-4-12-9-9-5 3-6 10-3 15 9 13 12 11 12-6zm-237-5c0-5-2-10-4-10-3 0-8 5-11 10-3 6-1 10 4 10 6 0 11-4 11-10zm80 6c0-3-4-8-10-11-5-3-10-1-10 4 0 6 5 11 10 11 6 0 10-2 10-4zm215-34c-3-3-11 0-18 7-9 10-8 11 6 5 10-3 15-9 12-12zm-218-7c0-8-4-12-9-9-5 3-6 10-3 15 9 13 12 11 12-6zm-203-7c-3-4-11-5-19-1-21 7-19 12 4 10 11 0 18-5 15-9zm86 8c0-3-4-8-10-11-5-3-10-1-10 4 0 6 5 11 10 11 6 0 10-2 10-4zm80-6c0-5-5-10-11-10-5 0-7 5-4 10 3 6 8 10 11 10 2 0 4-4 4-10zm264-18c3-5-1-9-9-9-8 0-12 4-9 9 3 4 7 8 9 8 2 0 6-4 9-8zm-429-22c3-5 1-10-4-10-6 0-11 5-11 10 0 6 2 10 4 10 3 0 8-4 11-10zm320 1c3-5 2-12-3-15-5-3-9 1-9 9 0 17 3 19 12 6zm45 3c0-8-19-13-24-6-3 5 1 9 9 9 8 0 15-2 15-3zm115-4c3-5 1-10-4-10-6 0-11 5-11 10 0 6 2 10 4 10 3 0 8-4 11-10zm-4e2-29c3-5 2-12-3-15-5-3-9 1-9 9 0 17 3 19 12 6zm39-9c3-5-1-9-9-9-8 0-12 4-9 9 3 4 7 8 9 8 2 0 6-4 9-8zm120-4c-3-4-11-5-19-1-21 7-19 12 4 10 11 0 18-5 15-9zm166 2c0-5-5-10-11-10-5 0-7 5-4 10 3 6 8 10 11 10 2 0 4-4 4-10zm-445-40c3-5 1-10-4-10-6 0-11 5-11 10 0 6 2 10 4 10 3 0 8-4 11-10zm279 2c2-4-5-9-17-9-17-2-19 0-7 7 18 12 18 12 24 2zm46-2c0-5-5-10-11-10-5 0-7 5-4 10 3 6 8 10 11 10 2 0 4-4 4-10zm240 0c0-5-5-10-11-10-5 0-7 5-4 10 3 6 8 10 11 10 2 0 4-4 4-10zm-480-40c0-5-2-10-4-10-3 0-8 5-11 10-3 6-1 10 4 10 6 0 11-4 11-10zm2e2.0c0-5-5-10-11-10-5 0-7 5-4 10 3 6 8 10 11 10 2 0 4-4 4-10zm34 2c3-5-1-9-9-9-8 0-12 4-9 9 3 4 7 8 9 8 2 0 6-4 9-8zm201-2c3-5 1-10-4-10-6 0-11 5-11 10 0 6 2 10 4 10 3 0 8-4 11-10zm-315-40c0-5-2-10-4-10-3 0-8 5-11 10-3 6-1 10 4 10 6 0 11-4 11-10zm195 0c3-5 1-10-4-10-6 0-11 5-11 10 0 6 2 10 4 10 3 0 8-4 11-10zm175 4c0-8-19-13-24-6-3 5 1 9 9 9 8 0 15-2 15-3zm27-9c0-8-4-12-9-9-5 3-6 10-3 15 9 13 12 11 12-6zm-262-23c-3-3-11 0-18 7-9 10-8 11 6 5 10-3 15-9 12-12zm-255-12c0-5-5-10-11-10-5 0-7 5-4 10 3 6 8 10 11 10 2 0 4-4 4-10zm195 1c3-5 2-12-3-15-5-3-9 1-9 9 0 17 3 19 12 6zm285 5c0-3-4-8-10-11-5-3-10-1-10 4 0 6 5 11 10 11 6 0 10-2 10-4zm34-4c3-5-1-9-9-9-8 0-12 4-9 9 3 4 7 8 9 8 2 0 6-4 9-8zm-579-22c3-5 1-10-4-10-6 0-11 5-11 10 0 6 2 10 4 10 3 0 8-4 11-10zm445 0c0-5-4-10-10-10-5 0-10 5-10 10 0 6 5 10 10 10 6 0 10-4 10-10zm-176-18c3-5-1-9-9-9-8 0-12 4-9 9 3 4 7 8 9 8 2 0 6-4 9-8zm356-2c0-5-5-10-11-10-5 0-7 5-4 10 3 6 8 10 11 10 2 0 4-4 4-10zm-456-22c-3-4-9-8-15-8-5 0-9 4-9 8 0 5 7 9 15 9 8 0 12-4 9-9zm173-7c0-11-5-18-9-15-4 3-5 11-1 19 7 21 12 19 10-4zm183 5c0-2-6-9-14-15-11-9-16-9-22 0-4 7-3 9 4 5 6-3 13-2 17 4 6 10 15 14 15 6zm-216-14c3-5-1-9-9-9-8 0-12 4-9 9 3 4 7 8 9 8 2 0 6-4 9-8zm76 2c0-8-19-13-24-6-3 5 1 9 9 9 8 0 15-2 15-3zm-3-39c0-8-4-12-9-9-5 3-6 10-3 15 9 13 12 11 12-6zm118 6c3-5 2-12-3-15-5-3-9 1-9 9 0 17 3 19 12 6zm-395-11c0-5-5-10-11-10-5 0-7 5-4 10 3 6 8 10 11 10 2 0 4-4 4-10zm114 1c3-5-2-15-12-22-15-12-16-12-5 2 7 9 10 19 6 22-3 4-4 7 0 7 3 0 8-4 11-9zm46 5c0-3-4-8-10-11-5-3-10-1-10 4 0 6 5 11 10 11 6 0 10-2 10-4zm320 0c0-3-4-8-10-11-5-3-10-1-10 4 0 6 5 11 10 11 6 0 10-2 10-4zm-406-48c-3-4-11-5-19-1-21 7-19 12 4 10 11 0 18-5 15-9zm439-13c-7-21-12-19-10 4 0 11 5 18 9 15 4-3 5-11 1-19zm44 3c2-17 0-19-7-8-5 8-6 18-4 22 8 12 10 10 11-14zm63 12c0-5-5-10-11-10-5 0-7 5-4 10 3 6 8 10 11 10 2 0 4-4 4-10zm-546-38c2-4-5-9-17-9-17-2-19 0-7 7 18 12 18 12 24 2zm126-2c0-5-2-10-4-10-3 0-8 5-11 10-3 6-1 10 4 10 6 0 11-4 11-10zm160 6c0-3-4-8-10-11-5-3-10-1-10 4 0 6 5 11 10 11 6 0 10-2 10-4zm80-2c0-8-19-13-24-6-3 5 1 9 9 9 8 0 15-2 15-3zm-420-18c0-2-7-7-16-10-8-3-12-2-9 4 6 10 25 14 25 6zm417-21c0-8-4-12-9-9-5 3-6 10-3 15 9 13 12 11 12-6zm-277-5c0-5-2-10-4-10-3 0-8 5-11 10-3 6-1 10 4 10 6 0 11-4 11-10zm80 0c0-5-5-10-11-10-5 0-7 5-4 10 3 6 8 10 11 10 2 0 4-4 4-10zm80 6c0-3-4-8-10-11-5-3-10-1-10 4 0 6 5 11 10 11 6 0 10-2 10-4zm60-1c0-7-30-13-34-7-3 4 4 9 15 9 10 1 19 0 19-2zm-20-45c0-5-5-10-11-10-5 0-7 5-4 10 3 6 8 10 11 10 2 0 4-4 4-10zm195 0c3-5 1-10-4-10-6 0-11 5-11 10 0 6 2 10 4 10 3 0 8-4 11-10zm85 0c0-5-2-10-4-10-3 0-8 5-11 10-3 6-1 10 4 10 6 0 11-4 11-10zm-519-23c-6-8-7-18-3-22 4-5 1-5-6-1-10 6-10 11-1 22 6 8 14 14 16 14 3 0 0-6-6-13zm584 3c-3-5-12-10-18-10-7 0-6 4 3 10 19 12 23 12 15 0zm-625-14c0-3-4-8-10-11-5-3-10-1-10 4 0 6 5 11 10 11 6 0 10-2 10-4zm240-6c0-5-2-10-4-10-3 0-8 5-11 10-3 6-1 10 4 10 6 0 11-4 11-10zm120 0c0-5-2-10-4-10-3 0-8 5-11 10-3 6-1 10 4 10 6 0 11-4 11-10zm195 1c3-5 2-12-3-15-5-3-9 1-9 9 0 17 3 19 12 6zm5-41c0-5-5-10-11-10-5 0-7 5-4 10 3 6 8 10 11 10 2 0 4-4 4-10zm120 6c0-3-4-8-10-11-5-3-10-1-10 4 0 6 5 11 10 11 6 0 10-2 10-4zm-215-25c-9-8-36-10-30-2 2 4 11 8 20 8 8 0 13-3 10-6zm172-10c0-11-5-18-9-15-4 3-5 11-1 19 7 21 12 19 10-4zm-477-11c0-5-5-10-11-10-5 0-7 5-4 10 3 6 8 10 11 10 2 0 4-4 4-10zm37-5c0-8-4-12-9-9-5 3-6 10-3 15 9 13 12 11 12-6zm118 5c3-5 1-10-4-10-6 0-11 5-11 10 0 6 2 10 4 10 3 0 8-4 11-10zm289 2c3-5-1-9-9-9-8 0-12 4-9 9 3 4 7 8 9 8 2 0 6-4 9-8zm-527-31c0-11-5-18-9-15-4 3-5 11-1 19 7 21 12 19 10-4zm119-13c3-4-1-5-10-4-8 1-18 5-22 8-3 4 1 5 10 4 8-1 18-5 22-8zm204 2c0-5-5-10-11-10-5 0-7 5-4 10 3 6 8 10 11 10 2 0 4-4 4-10zm160 6c0-3-4-8-10-11-5-3-10-1-10 4 0 6 5 11 10 11 6 0 10-2 10-4zm170-2c0-8-19-13-24-6-3 5 1 9 9 9 8 0 15-2 15-3zm-461-28c9-11 9-16-1-22-7-4-10-4-6 1 4 4 3 14-3 22-6 7-9 13-6 13 2 0 10-6 16-14zm126-5c3-5 2-12-3-15-5-3-9 1-9 9 0 17 3 19 12 6zm-81-9c3-5-1-9-9-9-8 0-12 4-9 9 3 4 7 8 9 8 2 0 6-4 9-8zm120 0c3-5-1-9-9-9-8 0-12 4-9 9 3 4 7 8 9 8 2 0 6-4 9-8zm120-4c-3-4-11-5-19-1-21 7-19 12 4 10 11 0 18-5 15-9zm166 2c0-5-5-10-11-10-5 0-7 5-4 10 3 6 8 10 11 10 2 0 4-4 4-10zm-6e2-34c0-3-4-8-10-11-5-3-10-1-10 4 0 6 5 11 10 11 6 0 10-2 10-4zm434-4c2-4-5-9-17-9-17-2-19 0-7 7 18 12 18 12 24 2zm46-2c0-5-5-10-11-10-5 0-7 5-4 10 3 6 8 10 11 10 2 0 4-4 4-10zm156-19c0-17-3-28-6-26-5 3-6 38-1 53 4 10 7-3 7-27zm-536-1c0-5-4-10-10-10-5 0-10 5-10 10 0 6 5 10 10 10 6 0 10-4 10-10zm140-20c0-5-2-10-4-10-3 0-8 5-11 10-3 6-1 10 4 10 6 0 11-4 11-10zm2e2.0c0-5-5-10-11-10-5 0-7 5-4 10 3 6 8 10 11 10 2 0 4-4 4-10zm34 2c3-5-1-9-9-9-8 0-12 4-9 9 3 4 7 8 9 8 2 0 6-4 9-8zm79-17c-7-21-12-19-10 4 0 11 5 18 9 15 4-3 5-11 1-19zm44 3c2-17 0-19-7-8-5 8-6 18-4 22 8 12 10 10 11-14zm-1322-17c3-5 2-12-3-15-5-3-9 1-9 9 0 17 3 19 12 6zm-80-11c3-5 1-10-4-10-6 0-11 5-11 10 0 6 2 10 4 10 3 0 8-4 11-10zm45 0c0-5-2-10-4-10-3 0-8 5-11 10-3 6-1 10 4 10 6 0 11-4 11-10zm915 1c3-5 2-12-3-15-5-3-9 1-9 9 0 17 3 19 12 6zm45 5c0-3-4-8-10-11-5-3-10-1-10 4 0 6 5 11 10 11 6 0 10-2 10-4zm160-6c0-5-2-10-4-10-3 0-8 5-11 10-3 6-1 10 4 10 6 0 11-4 11-10zm345-19c-9-8-36-10-30-2 2 4 11 8 20 8 8 0 13-3 10-6zm-508-16c0-8-4-12-9-9-5 3-6 10-3 15 9 13 12 11 12-6zm-83-7c-3-4-11-5-19-1-21 7-19 12 4 10 11 0 18-5 15-9zm46 2c0-5-5-10-11-10-5 0-7 5-4 10 3 6 8 10 11 10 2 0 4-4 4-10zm237-5c0-8-4-12-9-9-5 3-6 10-3 15 9 13 12 11 12-6zm118 5c3-5 1-10-4-10-6 0-11 5-11 10 0 6 2 10 4 10 3 0 8-4 11-10zm85 0c0-5-5-10-11-10-5 0-7 5-4 10 3 6 8 10 11 10 2 0 4-4 4-10zm-303-15c0-8-4-15-9-15-10 0-11 14-1 23 9 10 10 9 10-8zm-977-25c0-5-2-10-4-10-3 0-8 5-11 10-3 6-1 10 4 10 6 0 11-4 11-10zm794 2c3-5-1-9-9-9-8 0-12 4-9 9 3 4 7 8 9 8 2 0 6-4 9-8zm281-2c3-5 1-10-4-10-6 0-11 5-11 10 0 6 2 10 4 10 3 0 8-4 11-10zm360 0c3-5 1-10-4-10-6 0-11 5-11 10 0 6 2 10 4 10 3 0 8-4 11-10zm0-29c3-5 2-12-3-15-5-3-9 1-9 9 0 17 3 19 12 6zm-1441-13c-3-4-11-5-19-1-21 7-19 12 4 10 11 0 18-5 15-9zm846 6c0-8-19-13-24-6-3 5 1 9 9 9 8 0 15-2 15-3zm80 2c0-3-4-8-10-11-5-3-10-1-10 4 0 6 5 11 10 11 6 0 10-2 10-4zm440 0c0-3-4-8-10-11-5-3-10-1-10 4 0 6 5 11 10 11 6 0 10-2 10-4zm-223-31c0-8-4-12-9-9-4 3-8 9-8 15 0 5 4 9 8 9 5 0 9-7 9-15zm-3e2-10c0-8-4-12-9-9-5 3-6 10-3 15 9 13 12 11 12-6zm-1004-20c-7-21-12-19-10 4 0 11 5 18 9 15 4-3 5-11 1-19zm47 19c0-8-19-13-24-6-3 5 1 9 9 9 8 0 15-2 15-3zm115-4c3-5 1-10-4-10-6 0-11 5-11 10 0 6 2 10 4 10 3 0 8-4 11-10zm85 0c0-5-5-10-11-10-5 0-7 5-4 10 3 6 8 10 11 10 2 0 4-4 4-10zm960 6c0-3-4-8-10-11-5-3-10-1-10 4 0 6 5 11 10 11 6 0 10-2 10-4zm195-6c3-5 1-10-4-10-6 0-11 5-11 10 0 6 2 10 4 10 3 0 8-4 11-10zm-340-28c-3-3-11 0-18 7-9 10-8 11 6 5 10-3 15-9 12-12zm180-1c3-5 2-12-3-15-5-3-9 1-9 9 0 17 3 19 12 6zm-1280-12c2-3-8-5-25-5-16 0-27 3-25 6 5 8 42 6 50-1zm125 7c0-3-4-8-10-11-5-3-10-1-10 4 0 6 5 11 10 11 6 0 10-2 10-4zm40-6c0-5-2-10-4-10-3 0-8 5-11 10-3 6-1 10 4 10 6 0 11-4 11-10zm1154 2c3-5-1-9-9-9-8 0-12 4-9 9 3 4 7 8 9 8 2 0 6-4 9-8zm286-2c0-5-2-10-4-10-3 0-8 5-11 10-3 6-1 10 4 10 6 0 11-4 11-10zm-1280-40c0-5-5-10-11-10-5 0-7 5-4 10 3 6 8 10 11 10 2 0 4-4 4-10zm875 1c-8-7-45-9-50-1-2 3 9 6 25 6 17 0 27-2 25-5zm205-1c0-5-5-10-11-10-5 0-7 5-4 10 3 6 8 10 11 10 2 0 4-4 4-10zm80 6c0-3-4-8-10-11-5-3-10-1-10 4 0 6 5 11 10 11 6 0 10-2 10-4zm-1535-26c-3-5-12-10-18-10-7 0-6 4 3 10 19 12 23 12 15 0zm319-2c-3-4-9-8-15-8-5 0-9 4-9 8 0 5 7 9 15 9 8 0 12-4 9-9zm890-20c-3-4-11-5-19-1-21 7-19 12 4 10 11 0 18-5 15-9zm46 2c0-5-2-10-4-10-3 0-8 5-11 10-3 6-1 10 4 10 6 0 11-4 11-10zm130 4c0-8-19-13-24-6-3 5 1 9 9 9 8 0 15-2 15-3zm105-4c3-5 1-10-4-10-6 0-11 5-11 10 0 6 2 10 4 10 3 0 8-4 11-10zm85 0c0-5-2-10-4-10-3 0-8 5-11 10-3 6-1 10 4 10 6 0 11-4 11-10zm233-25c4-8 3-16-1-19-4-3-9 4-9 15-2 23 3 25 10 4zm-438-4c3-5 2-12-3-15-5-3-9 1-9 9 0 17 3 19 12 6zm-1435-11c0-5-5-10-11-10-5 0-7 5-4 10 3 6 8 10 11 10 2 0 4-4 4-10zm2e2.0c0-5-5-10-11-10-5 0-7 5-4 10 3 6 8 10 11 10 2 0 4-4 4-10zm120 0c0-5-5-10-11-10-5 0-7 5-4 10 3 6 8 10 11 10 2 0 4-4 4-10zm954 2c2-4-5-9-17-9-17-2-19 0-7 7 18 12 18 12 24 2zm66-7c0-2-9-3-19-2-11 0-18 5-15 9 4 6 34 0 34-7zm420 5c0-5-5-10-11-10-5 0-7 5-4 10 3 6 8 10 11 10 2 0 4-4 4-10zm-1683-29c0-11-5-18-9-15-4 3-5 11-1 19 7 21 12 19 10-4zm-33-9c3-5-1-9-9-9-8 0-12 4-9 9 3 4 7 8 9 8 2 0 6-4 9-8zm111-2c3-5 1-10-4-10-6 0-11 5-11 10 0 6 2 10 4 10 3 0 8-4 11-10zm205 0c0-5-5-10-11-10-5 0-7 5-4 10 3 6 8 10 11 10 2 0 4-4 4-10zm955 0c3-5 1-10-4-10-6 0-11 5-11 10 0 6 2 10 4 10 3 0 8-4 11-10zm205 0c0-5-5-10-11-10-5 0-7 5-4 10 3 6 8 10 11 10 2 0 4-4 4-10zm84 2c3-5-1-9-9-9-8 0-12 4-9 9 3 4 7 8 9 8 2 0 6-4 9-8zm36-2c0-5-2-10-4-10-3 0-8 5-11 10-3 6-1 10 4 10 6 0 11-4 11-10zm-1685-40c3-5 1-10-4-10-6 0-11 5-11 10 0 6 2 10 4 10 3 0 8-4 11-10zm45 4c0-8-19-13-24-6-3 5 1 9 9 9 8 0 15-2 15-3zm2e2-4c0-5-2-10-4-10-3 0-8 5-11 10-3 6-1 10 4 10 6 0 11-4 11-10zm37-12c2-17 0-19-7-8-5 8-6 18-4 22 8 12 10 10 11-14zm36-3c-7-21-12-19-10 4 0 11 5 18 9 15 4-3 5-11 1-19zm47 19c0-8-19-13-24-6-3 5 1 9 9 9 8 0 15-2 15-3zm115-4c3-5 1-10-4-10-6 0-11 5-11 10 0 6 2 10 4 10 3 0 8-4 11-10zm965 6c0-3-4-8-10-11-5-3-10-1-10 4 0 6 5 11 10 11 6 0 10-2 10-4zm360-6c0-5-5-10-11-10-5 0-7 5-4 10 3 6 8 10 11 10 2 0 4-4 4-10zm80 6c0-3-4-8-10-11-5-3-10-1-10 4 0 6 5 11 10 11 6 0 10-2 10-4zm115-6c3-5 1-10-4-10-6 0-11 5-11 10 0 6 2 10 4 10 3 0 8-4 11-10zm-1398-29c0-11-5-18-9-15-4 3-5 11-1 19 7 21 12 19 10-4zm1316 4c4-8 3-16-1-19-4-3-9 4-9 15-2 23 3 25 10 4zm-1937-17c3-4-1-5-10-4-8 1-18 5-22 8-3 4 1 5 10 4 8-1 18-5 22-8zm104 6c0-8-19-13-24-6-3 5 1 9 9 9 8 0 15-2 15-3zm120-4c0-5-2-10-4-10-3 0-8 5-11 10-3 6-1 10 4 10 6 0 11-4 11-10zm195 1c-9-8-36-10-30-2 2 4 11 8 20 8 8 0 13-3 10-6zm169 1c3-5-1-9-9-9-8 0-12 4-9 9 3 4 7 8 9 8 2 0 6-4 9-8zm833-14c2-17 0-19-7-8-5 8-6 18-4 22 8 12 10 10 11-14zm317 10c-3-4-11-5-19-1-21 7-19 12 4 10 11 0 18-5 15-9zm123-3c0-8-4-12-9-9-5 3-6 10-3 15 9 13 12 11 12-6zm117 7c3-5-1-9-9-9-8 0-12 4-9 9 3 4 7 8 9 8 2 0 6-4 9-8zm-1999-31c3-5 2-12-3-15-5-3-9 1-9 9 0 17 3 19 12 6zm122-6c0-8-4-12-9-9-5 3-6 10-3 15 9 13 12 11 12-6zm320 0c0-8-4-12-9-9-5 3-6 10-3 15 9 13 12 11 12-6zm1158-4c3-5 2-12-3-15-5-3-9 1-9 9 0 17 3 19 12 6zm45 5c0-3-4-8-10-11-5-3-10-1-10 4 0 6 5 11 10 11 6 0 10-2 10-4zm114-4c2-4-5-9-17-9-17-2-19 0-7 7 18 12 18 12 24 2zm120 0c2-4-5-9-17-9-17-2-19 0-7 7 18 12 18 12 24 2zm-1919-42c3-5 1-10-4-10-6 0-11 5-11 10 0 6 2 10 4 10 3 0 8-4 11-10zm85 0c0-5-5-10-11-10-5 0-7 5-4 10 3 6 8 10 11 10 2 0 4-4 4-10zm115 1c3-5 2-12-3-15-5-3-9 1-9 9 0 17 3 19 12 6zm118-16c-7-21-12-19-10 4 0 11 5 18 9 15 4-3 5-11 1-19zm44 3c2-17 0-19-7-8-5 8-6 18-4 22 8 12 10 10 11-14zm38 12c3-5 1-10-4-10-6 0-11 5-11 10 0 6 2 10 4 10 3 0 8-4 11-10zm2e2.0c3-5 1-10-4-10-6 0-11 5-11 10 0 6 2 10 4 10 3 0 8-4 11-10zm1245 0c0-5-5-10-11-10-5 0-7 5-4 10 3 6 8 10 11 10 2 0 4-4 4-10zm160 6c0-3-4-8-10-11-5-3-10-1-10 4 0 6 5 11 10 11 6 0 10-2 10-4zm-1766-45c-7-8-54-9-49-1 2 3 15 6 29 6 14 0 23-2 20-5zm286-1c0-5-5-10-11-10-5 0-7 5-4 10 3 6 8 10 11 10 2 0 4-4 4-10zm1035 0c3-5 1-10-4-10-6 0-11 5-11 10 0 6 2 10 4 10 3 0 8-4 11-10zm55 4c0-8-19-13-24-6-3 5 1 9 9 9 8 0 15-2 15-3zm30-4c0-5-5-10-11-10-5 0-7 5-4 10 3 6 8 10 11 10 2 0 4-4 4-10zm80 6c0-3-4-8-10-11-5-3-10-1-10 4 0 6 5 11 10 11 6 0 10-2 10-4zm395-6c3-5 1-10-4-10-6 0-11 5-11 10 0 6 2 10 4 10 3 0 8-4 11-10zm-175-20c0-5-4-10-10-10-5 0-10 5-10 10 0 6 5 10 10 10 6 0 10-4 10-10zm-1703-15c0-8-4-12-9-9-5 3-6 10-3 15 9 13 12 11 12-6zm1333-1c0-8-19-13-24-6-3 5 1 9 9 9 8 0 15-2 15-3zm105-4c3-5 1-10-4-10-6 0-11 5-11 10 0 6 2 10 4 10 3 0 8-4 11-10zm85 6c0-3-4-8-10-11-5-3-10-1-10 4 0 6 5 11 10 11 6 0 10-2 10-4zm-1820-22c0-8-19-13-24-6-3 5 1 9 9 9 8 0 15-2 15-3zm2e2-4c0-5-4-10-10-10-5 0-10 5-10 10 0 6 5 10 10 10 6 0 10-4 10-10zm-1e2-20c0-5-5-10-11-10-5 0-7 5-4 10 3 6 8 10 11 10 2 0 4-4 4-10zm315 0c3-5 1-10-4-10-6 0-11 5-11 10 0 6 2 10 4 10 3 0 8-4 11-10zm1495 4c0-8-19-13-24-6-3 5 1 9 9 9 8 0 15-2 15-3zm27-1c-4-3-1-13 6-22 11-14 10-14-5-2-16 12-16 31-1 31 4 0 3-3 0-7zm163-3c0-5-2-10-4-10-3 0-8 5-11 10-3 6-1 10 4 10 6 0 11-4 11-10zm115 0c3-5 1-10-4-10-6 0-11 5-11 10 0 6 2 10 4 10 3 0 8-4 11-10zm-175-24c0-2-6-9-14-15-11-9-16-9-22 0-4 7-3 9 4 5 6-3 13-2 17 4 6 10 15 14 15 6zm-1760-11c0-7-30-13-34-7-3 4 4 9 15 9 10 1 19 0 19-2zm1420-5c0-5-5-10-11-10-5 0-7 5-4 10 3 6 8 10 11 10 2 0 4-4 4-10zm120 0c0-5-2-10-4-10-3 0-8 5-11 10-3 6-1 10 4 10 6 0 11-4 11-10zm-1565-29c3-5 2-12-3-15-5-3-9 1-9 9 0 17 3 19 12 6zm1760 0c3-5 2-12-3-15-5-3-9 1-9 9 0 17 3 19 12 6zm-1995-11c0-5-2-10-4-10-3 0-8 5-11 10-3 6-1 10 4 10 6 0 11-4 11-10zm36-19c0-17-3-28-6-26-5 3-6 38-1 53 4 10 7-3 7-27zm84 19c0-5-2-10-4-10-3 0-8 5-11 10-3 6-1 10 4 10 6 0 11-4 11-10zm160 6c0-3-4-8-10-11-5-3-10-1-10 4 0 6 5 11 10 11 6 0 10-2 10-4zm80-6c0-5-5-10-11-10-5 0-7 5-4 10 3 6 8 10 11 10 2 0 4-4 4-10zm120 0c0-5-5-10-11-10-5 0-7 5-4 10 3 6 8 10 11 10 2 0 4-4 4-10zm80 6c0-3-4-8-10-11-5-3-10-1-10 4 0 6 5 11 10 11 6 0 10-2 10-4zm1320-6c0-5-2-10-4-10-3 0-8 5-11 10-3 6-1 10 4 10 6 0 11-4 11-10zm240 6c0-3-4-8-10-11-5-3-10-1-10 4 0 6 5 11 10 11 6 0 10-2 10-4zm-2167-61c-7-21-12-19-10 4 0 11 5 18 9 15 4-3 5-11 1-19zm44 3c2-17 0-19-7-8-5 8-6 18-4 22 8 12 10 10 11-14zm323 12c0-5-5-10-11-10-5 0-7 5-4 10 3 6 8 10 11 10 2 0 4-4 4-10zm1514-2c-3-4-11-5-19-1-21 7-19 12 4 10 11 0 18-5 15-9zm241 2c3-5 1-10-4-10-6 0-11 5-11 10 0 6 2 10 4 10 3 0 8-4 11-10zm-1977-25c-3-3-9 2-12 12-6 14-5 15 5 6 7-7 10-15 7-18zm322 4c0-5-4-9-8-9-5 0-9 7-9 15 0 8 4 12 9 9 4-3 8-9 8-15zm-540-13c0-3-4-8-10-11-5-3-10-1-10 4 0 6 5 11 10 11 6 0 10-2 10-4zm315-6c3-5 1-10-4-10-6 0-11 5-11 10 0 6 2 10 4 10 3 0 8-4 11-10zm315 0c-8-5-19-10-25-10-5 0-3 5 5 10 8 5 20 10 25 10 6 0 3-5-5-10zm1210 4c0-8-19-13-24-6-3 5 1 9 9 9 8 0 15-2 15-3zm114-2c2-4-5-9-17-9-17-2-19 0-7 7 18 12 18 12 24 2zm121-2c3-5 1-10-4-10-6 0-11 5-11 10 0 6 2 10 4 10 3 0 8-4 11-10zm-1875-34c0-3-4-8-10-11-5-3-10-1-10 4 0 6 5 11 10 11 6 0 10-2 10-4zm155-6c3-5 1-10-4-10-6 0-11 5-11 10 0 6 2 10 4 10 3 0 8-4 11-10zm85 0c0-5-2-10-4-10-3 0-8 5-11 10-3 6-1 10 4 10 6 0 11-4 11-10zm155 0c3-5 1-10-4-10-6 0-11 5-11 10 0 6 2 10 4 10 3 0 8-4 11-10zm1480 0c3-5 1-10-4-10-6 0-11 5-11 10 0 6 2 10 4 10 3 0 8-4 11-10zm-99-15c-1-8-5-17-8-21-5-4-4 16 1 34 3 9 9-1 7-13zm-1966-21c0-8-19-13-24-6-3 5 1 9 9 9 8 0 15-2 15-3zm27-16c2-17 0-19-7-8-5 8-6 18-4 22 8 12 10 10 11-14zm43 12c0-5-5-10-11-10-5 0-7 5-4 10 3 6 8 10 11 10 2 0 4-4 4-10zm180-22c0-4-4-8-9-8-6 0-12 4-15 8-3 5 1 9 9 9 8 0 15-4 15-9zm244 4c3-5-1-9-9-9-8 0-15 4-15 9 0 4 4 8 9 8 6 0 12-4 15-8zm-544-22c0-5-2-10-4-10-3 0-8 5-11 10-3 6-1 10 4 10 6 0 11-4 11-10zm594-2c-3-4-11-5-19-1-21 7-19 12 4 10 11 0 18-5 15-9zm1366 8c0-3-4-8-10-11-5-3-10-1-10 4 0 6 5 11 10 11 6 0 10-2 10-4zm80-6c0-5-5-10-11-10-5 0-7 5-4 10 3 6 8 10 11 10 2 0 4-4 4-10zm-1840-34c0-3-4-8-10-11-5-3-10-1-10 4 0 6 5 11 10 11 6 0 10-2 10-4zm155-6c3-5 1-10-4-10-6 0-11 5-11 10 0 6 2 10 4 10 3 0 8-4 11-10zm85 0c0-5-5-10-11-10-5 0-7 5-4 10 3 6 8 10 11 10 2 0 4-4 4-10zm-375-20c3-6-1-7-9-4-18 7-21 14-7 14 6 0 13-4 16-10zm210-12c5 4 5 1 1-6-6-10-11-10-22-1-8 6-14 14-14 16 0 3 6 0 13-6 8-6 18-7 22-3zm-322-23c-7-21-12-19-10 4 0 11 5 18 9 15 4-3 5-11 1-19zm44 3c2-17 0-19-7-8-5 8-6 18-4 22 8 12 10 10 11-14zm563 12c0-5-5-10-11-10-5 0-7 5-4 10 3 6 8 10 11 10 2 0 4-4 4-10zm1480 0c0-5-2-10-4-10-3 0-8 5-11 10-3 6-1 10 4 10 6 0 11-4 11-10zm-1763-35c0-8-4-12-9-9-5 3-6 10-3 15 9 13 12 11 12-6zm-197-5c0-5-2-10-4-10-3 0-8 5-11 10-3 6-1 10 4 10 6 0 11-4 11-10zm80 0c0-5-5-10-11-10-5 0-7 5-4 10 3 6 8 10 11 10 2 0 4-4 4-10zm195 1c3-5 2-12-3-15-5-3-9 1-9 9 0 17 3 19 12 6zm45 3c0-8-19-13-24-6-3 5 1 9 9 9 8 0 15-2 15-3zm50 0c0-8-19-13-24-6-3 5 1 9 9 9 8 0 15-2 15-3zm26-9c-1-8-5-17-8-21-5-4-4 16 1 34 3 9 9-1 7-13zm-571-15c3-6-1-7-9-4-18 7-21 14-7 14 6 0 13-4 16-10zm295-20c0-5-5-10-11-10-5 0-7 5-4 10 3 6 8 10 11 10 2 0 4-4 4-10zm220-20c0-5-4-10-10-10-5 0-10 5-10 10 0 6 5 10 10 10 6 0 10-4 10-10zm-490-16c0-8-19-13-24-6-3 5 1 9 9 9 8 0 15-2 15-3zm27-9c0-8-4-12-9-9-5 3-6 10-3 15 9 13 12 11 12-6zm198 5c3-5 1-10-4-10-6 0-11 5-11 10 0 6 2 10 4 10 3 0 8-4 11-10zm165 0c0-5-5-10-11-10-5 0-7 5-4 10 3 6 8 10 11 10 2 0 4-4 4-10zm-365-40c3-5 1-10-4-10-6 0-11 5-11 10 0 6 2 10 4 10 3 0 8-4 11-10zm119-2c-3-4-11-5-19-1-21 7-19 12 4 10 11 0 18-5 15-9zm166 2c0-5-5-10-11-10-5 0-7 5-4 10 3 6 8 10 11 10 2 0 4-4 4-10zm194-2c-3-4-11-5-19-1-21 7-19 12 4 10 11 0 18-5 15-9zm-94-19c0-5-4-9-8-9-5 0-9 7-9 15 0 8 4 12 9 9 4-3 8-9 8-15zm97-14c0-8-4-12-9-9-5 3-6 10-3 15 9 13 12 11 12-6zm-363-3c2-4-5-9-17-9-17-2-19 0-7 7 18 12 18 12 24 2zm46-2c0-5-5-10-11-10-5 0-7 5-4 10 3 6 8 10 11 10 2 0 4-4 4-10zm-320-34c0-3-4-8-10-11-5-3-10-1-10 4 0 6 5 11 10 11 6 0 10-2 10-4zm6e2-6c0-5-2-10-4-10-3 0-8 5-11 10-3 6-1 10 4 10 6 0 11-4 11-10zm-640-40c0-5-5-10-11-10-5 0-7 5-4 10 3 6 8 10 11 10 2 0 4-4 4-10zm160 0c0-5-2-10-4-10-3 0-8 5-11 10-3 6-1 10 4 10 6 0 11-4 11-10zm90 4c0-8-19-13-24-6-3 5 1 9 9 9 8 0 15-2 15-3zm27-9c0-8-4-12-9-9-5 3-6 10-3 15 9 13 12 11 12-6zm163 11c0-3-4-8-10-11-5-3-10-1-10 4 0 6 5 11 10 11 6 0 10-2 10-4zm80-6c0-5-2-10-4-10-3 0-8 5-11 10-3 6-1 10 4 10 6 0 11-4 11-10zm-445-40c3-5 1-10-4-10-6 0-11 5-11 10 0 6 2 10 4 10 3 0 8-4 11-10zm358-25c4-8 3-16-1-19-4-3-9 4-9 15-2 23 3 25 10 4zm44-4c0-11-5-18-9-15-4 3-5 11-1 19 7 21 12 19 10-4zm-507-7c0-8-19-13-24-6-3 5 1 9 9 9 8 0 15-2 15-3zm27-16c2-17 0-19-7-8-5 8-6 18-4 22 8 12 10 10 11-14zm203 18c0-3-4-8-10-11-5-3-10-1-10 4 0 6 5 11 10 11 6 0 10-2 10-4zm80-6c0-5-5-10-11-10-5 0-7 5-4 10 3 6 8 10 11 10 2 0 4-4 4-10zm115-21c1-11-1-22-5-24-3-2-6 9-6 25 0 33 9 32 11-1zm-475-19c0-5-2-10-4-10-3 0-8 5-11 10-3 6-1 10 4 10 6 0 11-4 11-10zm240 0c0-5-2-10-4-10-3 0-8 5-11 10-3 6-1 10 4 10 6 0 11-4 11-10zm80 0c0-5-5-10-11-10-5 0-7 5-4 10 3 6 8 10 11 10 2 0 4-4 4-10zm195 0c3-5 1-10-4-10-6 0-11 5-11 10 0 6 2 10 4 10 3 0 8-4 11-10zm85 0c0-5-2-10-4-10-3 0-8 5-11 10-3 6-1 10 4 10 6 0 11-4 11-10zm-605-29c3-5 2-12-3-15-5-3-9 1-9 9 0 17 3 19 12 6zm120-10c3-5 2-12-3-15-5-3-9 1-9 9 0 17 3 19 12 6zm45 3c0-8-19-13-24-6-3 5 1 9 9 9 8 0 15-2 15-3zm437-39c0-8-4-12-9-9-5 3-6 10-3 15 9 13 12 11 12-6zm-560-10c0-8-4-12-9-9-5 3-6 10-3 15 9 13 12 11 12-6zm243 11c0-3-4-8-10-11-5-3-10-1-10 4 0 6 5 11 10 11 6 0 10-2 10-4zm180-1c0-7-30-13-34-7-3 4 4 9 15 9 10 1 19 0 19-2zm1e2-5c0-5-5-10-11-10-5 0-7 5-4 10 3 6 8 10 11 10 2 0 4-4 4-10zm-380-20c0-5-4-10-10-10-5 0-10 5-10 10 0 6 5 10 10 10 6 0 10-4 10-10zm-146-18c3-5-1-9-9-9-8 0-12 4-9 9 3 4 7 8 9 8 2 0 6-4 9-8zm366 4c0-3-4-8-10-11-5-3-10-1-10 4 0 6 5 11 10 11 6 0 10-2 10-4zm60-11c0-2-9-3-19-2-11 0-18 5-15 9 4 6 34 0 34-7zm-345-27c5 4 5 1 1-6-6-10-11-10-22-1-8 6-14 14-14 16 0 3 6 0 13-6 8-6 18-7 22-3zm-195-8c0-5-2-10-4-10-3 0-8 5-11 10-3 6-1 10 4 10 6 0 11-4 11-10zm40 6c0-3-4-8-10-11-5-3-10-1-10 4 0 6 5 11 10 11 6 0 10-2 10-4zm157-41c0-8-4-12-9-9-5 3-6 10-3 15 9 13 12 11 12-6zm-67-1c0-8-19-13-24-6-3 5 1 9 9 9 8 0 15-2 15-3zm27-16c2-17 0-19-7-8-5 8-6 18-4 22 8 12 10 10 11-14zm163 18c0-3-4-8-10-11-5-3-10-1-10 4 0 6 5 11 10 11 6 0 10-2 10-4zm80-6c0-5-2-10-4-10-3 0-8 5-11 10-3 6-1 10 4 10 6 0 11-4 11-10zm154 1c3-5-2-15-12-22-15-12-16-12-5 2 7 9 10 19 6 22-3 4-4 7 0 7 3 0 8-4 11-9zm46 3c0-8-19-13-24-6-3 5 1 9 9 9 8 0 15-2 15-3zm-643-39c0-8-4-12-9-9-5 3-6 10-3 15 9 13 12 11 12-6zm123-5c0-5-2-10-4-10-3 0-8 5-11 10-3 6-1 10 4 10 6 0 11-4 11-10zm160 0c0-5-5-10-11-10-5 0-7 5-4 10 3 6 8 10 11 10 2 0 4-4 4-10zm251-33c-10-9-11-8-5 6 3 10 9 15 12 12 3-3 0-11-7-18zm-91-7c0-5-2-10-4-10-3 0-8 5-11 10-3 6-1 10 4 10 6 0 11-4 11-10zm36-19c0-17-3-28-6-26-5 3-6 38-1 53 4 10 7-3 7-27zm-292 1c3-5-1-9-9-9-8 0-15 4-15 9 0 4 4 8 9 8 6 0 12-4 15-8zm-144-16c0-3-4-8-10-11-5-3-10-1-10 4 0 6 5 11 10 11 6 0 10-2 10-4zm320 0c0-3-4-8-10-11-5-3-10-1-10 4 0 6 5 11 10 11 6 0 10-2 10-4zm33-21c-7-21-12-19-10 4 0 11 5 18 9 15 4-3 5-11 1-19zm44 3c2-17 0-19-7-8-5 8-6 18-4 22 8 12 10 10 11-14zm-357-28c0-5-2-10-4-10-3 0-8 5-11 10-3 6-1 10 4 10 6 0 11-4 11-10zm160 0c0-5-5-10-11-10-5 0-7 5-4 10 3 6 8 10 11 10 2 0 4-4 4-10zm81-23c-6-8-7-18-3-22 4-5 1-5-6-1-10 6-10 11-1 22 6 8 14 14 16 14 3 0 0-6-6-13zm-326-17c3-5 1-10-4-10-6 0-11 5-11 10 0 6 2 10 4 10 3 0 8-4 11-10zm185 5c0-7-30-13-34-7-3 4 4 9 15 9 10 1 19 0 19-2zm1e2-5c0-5-5-10-11-10-5 0-7 5-4 10 3 6 8 10 11 10 2 0 4-4 4-10zm260 5c0-7-30-13-34-7-3 4 4 9 15 9 10 1 19 0 19-2zm-643-20c0-8-4-15-9-15-10 0-11 14-1 23 9 10 10 9 10-8zm218-25c3-5 1-10-4-10-6 0-11 5-11 10 0 6 2 10 4 10 3 0 8-4 11-10zm65-5c0-2-9-3-19-2-11 0-18 5-15 9 4 6 34 0 34-7zm260 5c0-5-5-10-11-10-5 0-7 5-4 10 3 6 8 10 11 10 2 0 4-4 4-10zm80 6c0-3-4-8-10-11-5-3-10-1-10 4 0 6 5 11 10 11 6 0 10-2 10-4zm-645-46c3-5 1-10-4-10-6 0-11 5-11 10 0 6 2 10 4 10 3 0 8-4 11-10zm45 0c0-5-5-10-11-10-5 0-7 5-4 10 3 6 8 10 11 10 2 0 4-4 4-10zm235-1c2-3-8-5-25-5-16 0-27 3-25 6 5 8 42 6 50-1zm205 7c0-3-4-8-10-11-5-3-10-1-10 4 0 6 5 11 10 11 6 0 10-2 10-4zm-320-46c0-5-5-10-11-10-5 0-7 5-4 10 3 6 8 10 11 10 2 0 4-4 4-10zm2e2 6c0-3-4-8-10-11-5-3-10-1-10 4 0 6 5 11 10 11 6 0 10-2 10-4zm220-6c0-5-5-10-11-10-5 0-7 5-4 10 3 6 8 10 11 10 2 0 4-4 4-10zm-499-23c-6-8-7-18-3-22 4-5 1-5-6-1-10 6-10 11-1 22 6 8 14 14 16 14 3 0 0-6-6-13zm214-5c-3-3-11 0-18 7-9 10-8 11 6 5 10-3 15-9 12-12zm218 3c4-8 3-16-1-19-4-3-9 4-9 15-2 23 3 25 10 4zm-573-10c0-7-30-13-34-7-3 4 4 9 15 9 10 1 19 0 19-2zm1e2-5c0-5-5-10-11-10-5 0-7 5-4 10 3 6 8 10 11 10 2 0 4-4 4-10zm195 0c3-5 1-10-4-10-6 0-11 5-11 10 0 6 2 10 4 10 3 0 8-4 11-10zm319 2c3-5-1-9-9-9-8 0-12 4-9 9 3 4 7 8 9 8 2 0 6-4 9-8zm-134-23c0-5-4-9-8-9-5 0-9 7-9 15 0 8 4 12 9 9 4-3 8-9 8-15zm-505-8c3-5 2-12-3-15-5-3-9 1-9 9 0 17 3 19 12 6zm225-31c0-5-4-10-10-10-5 0-10 5-10 10 0 6 5 10 10 10 6 0 10-4 10-10zm-185-9c3-5 2-12-3-15-5-3-9 1-9 9 0 17 3 19 12 6zm-75-11c0-5-5-10-11-10-5 0-7 5-4 10 3 6 8 10 11 10 2 0 4-4 4-10zm114 2c3-5-1-9-9-9-8 0-12 4-9 9 3 4 7 8 9 8 2 0 6-4 9-8zm326-2c0-5-2-10-4-10-3 0-8 5-11 10-3 6-1 10 4 10 6 0 11-4 11-10zm160 0c0-5-2-10-4-10-3 0-8 5-11 10-3 6-1 10 4 10 6 0 11-4 11-10zm-606-38c2-4-5-9-17-9-17-2-19 0-7 7 18 12 18 12 24 2zm176 2c0-8-19-13-24-6-3 5 1 9 9 9 8 0 15-2 15-3zm26-19c-1-13-4-27-7-30-5-4-4 41 0 53 4 10 8-2 7-23zm117 0c-7-21-12-19-10 4 0 11 5 18 9 15 4-3 5-11 1-19zm47 19c0-8-19-13-24-6-3 5 1 9 9 9 8 0 15-2 15-3zm120-4c0-5-2-10-4-10-3 0-8 5-11 10-3 6-1 10 4 10 6 0 11-4 11-10zm-544-56c1-9 0-13-4-10-3 4-7 14-8 22-1 9 0 13 4 10 3-4 7-14 8-22zm104 16c0-5-2-10-4-10-3 0-8 5-11 10-3 6-1 10 4 10 6 0 11-4 11-10zm194 2c3-5-1-9-9-9-8 0-12 4-9 9 3 4 7 8 9 8 2 0 6-4 9-8zm126 4c0-3-4-8-10-11-5-3-10-1-10 4 0 6 5 11 10 11 6 0 10-2 10-4zm113-21c-7-21-12-19-10 4 0 11 5 18 9 15 4-3 5-11 1-19zm44 3c2-17 0-19-7-8-5 8-6 18-4 22 8 12 10 10 11-14zm-384-3c-3-9-8-14-10-11-3 3-2 9 2 15 9 16 15 13 8-4zm221-23c2-4-5-9-17-9-17-2-19 0-7 7 18 12 18 12 24 2zm46-2c0-5-5-10-11-10-5 0-7 5-4 10 3 6 8 10 11 10 2 0 4-4 4-10zm-403-45c0-8-4-12-9-9-5 3-6 10-3 15 9 13 12 11 12-6zm118 5c3-5 1-10-4-10-6 0-11 5-11 10 0 6 2 10 4 10 3 0 8-4 11-10zm65 5c0-7-30-13-34-7-3 4 4 9 15 9 10 1 19 0 19-2zm180-5c0-5-5-10-11-10-5 0-7 5-4 10 3 6 8 10 11 10 2 0 4-4 4-10zm-447-25c4-8 3-16-1-19-4-3-9 4-9 15-2 23 3 25 10 4zm44-4c0-11-5-18-9-15-4 3-5 11-1 19 7 21 12 19 10-4zm37-9c3-5-1-9-9-9-8 0-12 4-9 9 3 4 7 8 9 8 2 0 6-4 9-8zm186-7c0-2-9-3-19-2-11 0-18 5-15 9 4 6 34 0 34-7zm1e2 5c0-5-2-10-4-10-3 0-8 5-11 10-3 6-1 10 4 10 6 0 11-4 11-10zm2e2.0c0-5-5-10-11-10-5 0-7 5-4 10 3 6 8 10 11 10 2 0 4-4 4-10zm-411-24c9-11 9-16-1-22-7-4-10-4-6 1 4 4 3 14-3 22-6 7-9 13-6 13 2 0 10-6 16-14zm351 2c0-4-4-8-9-8-6 0-12 4-15 8-3 5 1 9 9 9 8 0 15-4 15-9zm-505-18c3-5 1-10-4-10-6 0-11 5-11 10 0 6 2 10 4 10 3 0 8-4 11-10zm199 2c3-5-1-9-9-9-8 0-12 4-9 9 3 4 7 8 9 8 2 0 6-4 9-8zm46-2c0-5-2-10-4-10-3 0-8 5-11 10-3 6-1 10 4 10 6 0 11-4 11-10zm195 1c3-5 2-12-3-15-5-3-9 1-9 9 0 17 3 19 12 6zm121-3c3-4-1-5-10-4-8 1-18 5-22 8-3 4 1 5 10 4 8-1 18-5 22-8zm-116-38c0-5-5-10-11-10-5 0-7 5-4 10 3 6 8 10 11 10 2 0 4-4 4-10zm-527-25c4-8 3-16-1-19-4-3-9 4-9 15-2 23 3 25 10 4zm187 5c0-5-4-10-10-10-5 0-10 5-10 10 0 6 5 10 10 10 6 0 10-4 10-10zm245 1c-9-8-36-10-30-2 2 4 11 8 20 8 8 0 13-3 10-6zm172-10c0-11-5-18-9-15-4 3-5 11-1 19 7 21 12 19 10-4zm-563-9c3-5-1-9-9-9-8 0-12 4-9 9 3 4 7 8 9 8 2 0 6-4 9-8zm530 0c3-5-1-9-9-9-8 0-12 4-9 9 3 4 7 8 9 8 2 0 6-4 9-8zm-604-18c0-8-19-13-24-6-3 5 1 9 9 9 8 0 15-2 15-3zm160-24c0-5-5-10-11-10-5 0-7 5-4 10 3 6 8 10 11 10 2 0 4-4 4-10zm160 6c0-3-4-8-10-11-5-3-10-1-10 4 0 6 5 11 10 11 6 0 10-2 10-4zm80-6c0-5-5-10-11-10-5 0-7 5-4 10 3 6 8 10 11 10 2 0 4-4 4-10zm160 6c0-3-4-8-10-11-5-3-10-1-10 4 0 6 5 11 10 11 6 0 10-2 10-4zm-44-42c1-9 0-13-4-10-3 4-7 14-8 22-1 9 0 13 4 10 3-4 7-14 8-22zm-479 1c0-8-4-12-9-9-5 3-6 10-3 15 9 13 12 11 12-6zm-33-3c3-5-1-9-9-9-8 0-12 4-9 9 3 4 7 8 9 8 2 0 6-4 9-8zm376 3c0-7-30-13-34-7-3 4 4 9 15 9 10 1 19 0 19-2zm104-3c3-5-1-9-9-9-8 0-12 4-9 9 3 4 7 8 9 8 2 0 6-4 9-8zm-284-36c0-3-4-8-10-11-5-3-10-1-10 4 0 6 5 11 10 11 6 0 10-2 10-4zm75-6c3-5 1-10-4-10-6 0-11 5-11 10 0 6 2 10 4 10 3 0 8-4 11-10zm105-5c0-2-9-3-19-2-11 0-18 5-15 9 4 6 34 0 34-7zm-220-35c0-5-5-10-11-10-5 0-7 5-4 10 3 6 8 10 11 10 2 0 4-4 4-10zm75 0c3-5 1-10-4-10-6 0-11 5-11 10 0 6 2 10 4 10 3 0 8-4 11-10zm-202-25c4-8 3-16-1-19-4-3-9 4-9 15-2 23 3 25 10 4zm44-4c0-11-5-18-9-15-4 3-5 11-1 19 7 21 12 19 10-4zm-181-13c3-4-1-5-10-4-8 1-18 5-22 8-3 4 1 5 10 4 8-1 18-5 22-8zm499 2c3-5 1-10-4-10-6 0-11 5-11 10 0 6 2 10 4 10 3 0 8-4 11-10zm125 6c0-3-4-8-10-11-5-3-10-1-10 4 0 6 5 11 10 11 6 0 10-2 10-4zm-520-46c0-5-2-10-4-10-3 0-8 5-11 10-3 6-1 10 4 10 6 0 11-4 11-10zm40 0c0-5-5-10-11-10-5 0-7 5-4 10 3 6 8 10 11 10 2 0 4-4 4-10zm2e2.0c0-5-2-10-4-10-3 0-8 5-11 10-3 6-1 10 4 10 6 0 11-4 11-10zm-5-29c3-5 2-12-3-15-5-3-9 1-9 9 0 17 3 19 12 6zm-355-11c0-5-5-10-11-10-5 0-7 5-4 10 3 6 8 10 11 10 2 0 4-4 4-10zm280 0c0-5-5-10-11-10-5 0-7 5-4 10 3 6 8 10 11 10 2 0 4-4 4-10zm240 0c0-5-5-10-11-10-5 0-7 5-4 10 3 6 8 10 11 10 2 0 4-4 4-10zm80 0c0-5-2-10-4-10-3 0-8 5-11 10-3 6-1 10 4 10 6 0 11-4 11-10zm-205-29c3-5 2-12-3-15-5-3-9 1-9 9 0 17 3 19 12 6zm-78-16c0-8-4-12-9-9-5 3-6 10-3 15 9 13 12 11 12-6zm117 7c3-5-1-9-9-9-8 0-12 4-9 9 3 4 7 8 9 8 2 0 6-4 9-8zm121-2c3-5 1-10-4-10-6 0-11 5-11 10 0 6 2 10 4 10 3 0 8-4 11-10zm-335-19c0-6-4-12-8-15-5-3-9 1-9 9 0 8 4 15 9 15 4 0 8-4 8-9zm-140-15c0-3-4-8-10-11-5-3-10-1-10 4 0 6 5 11 10 11 6 0 10-2 10-4zm234-4c2-4-5-9-17-9-17-2-19 0-7 7 18 12 18 12 24 2zm147-19c13-16 12-17-3-4-10 7-18 15-18 17 0 8 8 3 21-13zm-441 1c0-8-19-13-24-6-3 5 1 9 9 9 8 0 15-2 15-3zm140-24c0-5-2-10-4-10-3 0-8 5-11 10-3 6-1 10 4 10 6 0 11-4 11-10zm240 6c0-3-4-8-10-11-5-3-10-1-10 4 0 6 5 11 10 11 6 0 10-2 10-4z"/><path d="M2976 6269c2-4-5-6-17-4-12 3-34-5-50-15-31-23-92-116-84-130 3-4-2-11-11-14-10-4-14-12-10-23 4-10 4-14 0-10-10 9-46-51-38-64 3-5 1-8-4-7-6 2-10-1-11-5 0-4-7-15-16-24-9-8-14-22-11-29 3-8 0-14-8-14-17 0-40-45-31-61 5-7 4-10-2-6-5 3-17-7-27-24-9-16-14-29-9-29 4 0 3-4-3-8-17-12-64-85-59-93 3-4-2-9-10-13-8-3-15-12-15-19 0-8-7-20-15-27-9-7-14-19-11-27 3-8 1-11-4-8-6 3-10 1-10-5 0-6-22-46-50-90-27-44-46-80-43-80 3 0-2-9-11-19-10-11-15-25-10-32 4-7 3-10-3-6-6 4-18-8-27-26-9-17-24-43-34-57-13-19-14-22-2-16 8 5 5-1-7-13-29-28-56-79-48-92 4-5 1-8-7-7-7 2-12-3-11-9 2-7-2-13-7-13-6 0-10-6-10-14 0-7-7-19-15-26-8-7-12-16-9-21 3-5-2-12-10-15-8-3-18-15-22-27-4-12-19-42-35-66-21-34-25-49-17-58 8-10 7-12-4-8-9 4-20-5-29-22-8-15-20-34-27-42-11-12-11-15 0-22 10-7 10-9-2-9-19 0-83-107-73-122 3-6 2-8-4-5-10 7-74-97-76-125-1-9-4-15-7-13-11 7-42-54-34-67 4-6 3-8-4-4-6 3-13-3-17-14-3-11-11-20-16-20-6 0-8-4-5-9 3-4-6-21-19-37-14-16-23-35-20-41 2-7 0-13-5-13-13 0-42-59-35-71 4-5 1-8-7-7-7 2-12-5-12-14 1-10-1-16-5-13-4 2-21-20-38-50-21-36-27-55-20-59 7-2 4-5-5-5-16-1-35-36-30-54 1-5-1-6-6-3-4 2-14-4-21-16-10-16-10-19 1-13 7 3 6 1-3-7-14-12-47-66-51-85-1-5-6-12-10-18-25-31-55-84-50-89 3-3 0-6-7-6-7 0-10-4-7-9 4-5 3-11-2-13-13-5-146-232-147-251 0-4-5-11-11-15-6-4-18-20-26-37-45-88-64-121-73-127-5-4-6-8-2-8 4 0-1-10-13-22-11-12-20-26-20-32 0-5-8-18-17-29-13-15-14-19-3-13 11 6 11 4-1-6-22-18-60-94-51-103 4-5 2-5-4-2-14 8-56-71-47-86 3-6 1-7-5-3-13 8-36-30-27-44 3-6-1-10-9-10-12 0-33-38-27-48 1-2-6-10-16-18-10-7-13-14-8-14 6 0 3-5-5-10-13-9-13-11 0-20 12-9 12-10-5-8-12 2-21-4-23-16-2-10-12-28-23-39-10-11-16-24-13-29 3-4 0-8-6-8-7 0-9-7-6-16 4-10 2-13-6-8-8 5-9 2-5-10 4-10 3-15-3-11-6 3-15-4-21-17-5-13-20-39-32-59-58-97-86-153-80-162 3-6 1-7-6-3-6 4-14 0-18-11-4-10-17-35-30-55-13-21-20-38-16-38 5 0 1-5-7-10-13-9-13-11 0-21 13-9 13-10-2-5-23 7-71-77-54-94 8-8 7-10-5-5-22 8-34-12-18-31 10-12 9-13-5-8-10 4-18 0-23-12-3-11-15-30-25-43-15-19-16-27-6-39 11-13 11-14 0-8-16 10-44-23-37-42 3-7 1-11-4-8-11 7-23-22-15-35 3-5 0-8-8-7-7 2-12-3-10-10 1-7-5-15-13-18-8-3-12-10-9-15 3-5 2-9-3-9-4 0-21-26-38-58-16-31-33-59-36-62-9-7-40-69-38-76 0-4-3-10-8-13-4-3-13-15-20-26-54-90-73-127-68-136 4-5 1-8-7-7-7 2-12-3-11-9 2-7-2-13-7-13-6 0-10-6-10-14 0-7-7-19-15-26-8-7-12-16-9-21 3-5 0-9-6-9-7 0-9-7-6-16 3-8 2-13-3-10-11 7-23-22-14-36 3-6 1-8-4-5-11 7-49-41-40-49 3-3-6-17-20-32-13-14-22-34-20-43 3-13 0-16-11-12-12 5-14 1-10-15 4-12 3-20-2-17-13 8-40-60-34-90 7-41 23-67 36-59 7 4 8 3 4-4-15-25 39-31 284-31 2e2.0 259 3 274 14 11 9 15 19 10 27-6 10-5 11 7 1 13-10 19-8 37 11 11 13 18 27 15 30-4 3 0 6 7 6 7 0 11 3 8 6-4 3 2 14 13 25 11 11 17 24 14 29-4 6-2 10 2 10 5 0 14 9 21 21 11 17 11 20 0 14-7-3-6-1 3 7 14 12 159 254 159 265 0 3 9 18 21 34 11 16 17 34 13 40-4 7-3 9 3 6 5-3 18 11 28 31 11 20 24 40 30 44 5 4 6 8 1 8-5 0-1 9 8 19 10 11 15 25 10 32-5 8-3 10 6 4 10-6 12-4 7 8-4 10-2 16 5 14 6-1 13 4 16 12 3 9 0 11-8 6-9-5-11-4-6 4 4 6 12 9 17 6 8-6 26 27 27 49 0 5 7 13 16 18 9 5 14 13 11 19-4 5-1 9 5 9 6 0 8 5 5 10-3 6-2 10 2 10 9 0 43 52 43 65 0 3-4 4-9 0-5-3-13-1-16 5-4 6-3 10 2 9 19-3 46 1 40 7-3 4 1 13 9 21 8 9 13 22 10 30-3 8-1 11 4 8 9-6 14 8 8 20-2 2 6 10 16 18 12 9 16 19 11 27-5 8-4 11 2 7 5-3 18 11 29 31 10 20 25 43 32 51 7 7 11 20 8 28-3 8-2 12 3 8 5-3 16 8 25 25 9 19 10 28 3 24-7-4-2 3 10 15 31 29 55 79 47 93-4 6-3 8 4 4 9-5 130 190 135 219 1 5 7 14 14 20 7 5 24 33 39 60 44 84 58 109 72 123 7 8 10 18 7 23-4 5-1 9 5 9 7 0 9 7 6 16-3 8-2 13 3 10 5-3 16 9 26 27 26 50 40 74 53 89 6 8 13 24 15 36 2 12 7 25 12 29 4 5 5 2 0-6-6-10-4-12 4-7 7 5 10 14 7 22-3 8-1 14 4 14 4 0 22 25 39 57 25 46 29 59 18 72-10 14-10 14 3 4 12-9 19-6 34 15 11 14 14 22 7 18-6-4 3 13 20 38 29 40 31 47 18 63-13 16-12 17 3 5 15-12 20-8 40 30 12 24 26 51 30 61 4 9 12 17 18 17 6 0 9 4 6 8-3 5 3 20 12 33 25 36 51 81 65 112 6 15 15 27 20 27 4 0 6 4 3 9-3 5 1 12 10 15 9 3 14 13 11 20-3 8-1 17 6 19 9 3 8 9-3 23-14 17-14 18 2 6 14-11 18-10 28 8 6 11 8 26 4 33-4 6-3 9 1 4 9-7 65 73 65 93 0 5 4 10 9 10 5 0 11 8 14 18 3 9 19 40 36 67 72 120 88 154 79 163-7 7-4 10 8 9 12-1 19 4 18 15-1 10 1 16 5 14 4-3 19 17 33 44 19 36 23 51 14 60-8 8-7 10 6 5 12-5 20-1 25 11 4 11 17 34 30 53 12 18 20 37 17 42-3 5 0 9 5 9 6 0 11 6 11 14 0 8 5 16 10 18 6 2 12 13 13 25 0 12 5 19 9 17 4-3 13 8 20 23 7 15 15 30 18 33 3 3 11 16 18 29 8 13 22 38 32 56 13 22 15 36 8 43-7 7-5 10 7 9 10-1 26 17 44 50 15 29 34 59 41 68 7 8 9 15 6 15-4 0 0 7 8 16 9 8 14 19 11 24-3 4 2 11 11 14 8 3 12 10 9 16-3 5-2 10 3 10 14 0 64 99 56 112-4 6-3 8 3 5 10-7 53 53 53 74 0 5 9 18 20 29 12 12 18 25 15 30-4 6-2 10 3 10 9 0 37 50 34 63-1 4 2 7 7 7 15 0 22 33 9 43-9 6-8 7 4 3 20-6 43 27 32 47-4 6-4 9 1 5 14-13 55 55 43 70-8 9-7 11 3 7 10-4 24 12 42 47 16 29 41 73 57 98 16 25 29 53 29 63 1 9 5 17 11 17 13 0 61 96 52 105-4 5-2 5 4 2 7-4 21 13 35 41 13 26 26 49 30 52 11 10 112 195 112 207 0 7 5 11 11 10 5-1 10 3 11 8 0 6 5 19 11 30 12 22 12 61 0 91-6 16-9 16-17 4-8-11-9-9-4 8 5 19 1 25-29 37-28 12-83 15-270 14-130-1-233-5-230-10zm214-23c0-3-4-8-10-11-5-3-10-1-10 4 0 6 5 11 10 11 6 0 10-2 10-4zm40-6c0-5-2-10-4-10-3 0-8 5-11 10-3 6-1 10 4 10 6 0 11-4 11-10zm160 6c0-3-4-8-10-11-5-3-10-1-10 4 0 6 5 11 10 11 6 0 10-2 10-4zm-380-26c0-5-4-10-10-10-5 0-10 5-10 10 0 6 5 10 10 10 6 0 10-4 10-10zm-143-72c2-17 0-19-7-8-5 8-6 18-4 22 8 12 10 10 11-14zm83 12c0-5-5-10-11-10-5 0-7 5-4 10 3 6 8 10 11 10 2 0 4-4 4-10zm120 0c0-5-2-10-4-10-3 0-8 5-11 10-3 6-1 10 4 10 6 0 11-4 11-10zm75 0c3-5 1-10-4-10-6 0-11 5-11 10 0 6 2 10 4 10 3 0 8-4 11-10zm95 4c0-8-19-13-24-6-3 5 1 9 9 9 8 0 15-2 15-3zm26-9c-1-8-5-17-8-21-5-4-4 16 1 34 3 9 9-1 7-13zm84 11c0-3-4-8-10-11-5-3-10-1-10 4 0 6 5 11 10 11 6 0 10-2 10-4zm115-6c3-5 1-10-4-10-6 0-11 5-11 10 0 6 2 10 4 10 3 0 8-4 11-10zm-438-29c0-11-5-18-9-15-4 3-5 11-1 19 7 21 12 19 10-4zm-33-9c3-5-1-9-9-9-8 0-12 4-9 9 3 4 7 8 9 8 2 0 6-4 9-8zm111-1c3-5 2-12-3-15-5-3-9 1-9 9 0 17 3 19 12 6zm202-6c0-8-4-12-9-9-5 3-6 10-3 15 9 13 12 11 12-6zm118 5c3-5 1-10-4-10-6 0-11 5-11 10 0 6 2 10 4 10 3 0 8-4 11-10zm-215-20c0-5-4-10-10-10-5 0-10 5-10 10 0 6 5 10 10 10 6 0 10-4 10-10zm-260-14c0-3-4-8-10-11-5-3-10-1-10 4 0 6 5 11 10 11 6 0 10-2 10-4zm180-11c0-2-9-3-19-2-11 0-18 5-15 9 4 6 34 0 34-7zm174 7c2-4-5-9-17-9-17-2-19 0-7 7 18 12 18 12 24 2zm166-2c0-5-2-10-4-10-3 0-8 5-11 10-3 6-1 10 4 10 6 0 11-4 11-10zm-640-40c0-5-5-10-11-10-5 0-7 5-4 10 3 6 8 10 11 10 2 0 4-4 4-10zm235 0c3-5 1-10-4-10-6 0-11 5-11 10 0 6 2 10 4 10 3 0 8-4 11-10zm119-2c-3-4-11-5-19-1-21 7-19 12 4 10 11 0 18-5 15-9zm0-36c2-4-5-9-17-9-17-2-19 0-7 7 18 12 18 12 24 2zm86-2c0-5-5-10-11-10-5 0-7 5-4 10 3 6 8 10 11 10 2 0 4-4 4-10zm80 6c0-3-4-8-10-11-5-3-10-1-10 4 0 6 5 11 10 11 6 0 10-2 10-4zm-440-40c0-3-4-8-10-11-5-3-10-1-10 4 0 6 5 11 10 11 6 0 10-2 10-4zm397-11c0-8-4-12-9-9-5 3-6 10-3 15 9 13 12 11 12-6zm83 11c0-3-4-8-10-11-5-3-10-1-10 4 0 6 5 11 10 11 6 0 10-2 10-4zm-189-39c-10-9-11-8-5 6 3 10 9 15 12 12 3-3 0-11-7-18zm-331-7c0-5-5-10-11-10-5 0-7 5-4 10 3 6 8 10 11 10 2 0 4-4 4-10zm160 0c0-5-2-10-4-10-3 0-8 5-11 10-3 6-1 10 4 10 6 0 11-4 11-10zm90 4c0-8-19-13-24-6-3 5 1 9 9 9 8 0 15-2 15-3zm27-9c0-8-4-12-9-9-5 3-6 10-3 15 9 13 12 11 12-6zm157 7c2-4-5-9-17-9-17-2-19 0-7 7 18 12 18 12 24 2zm-45-26c9-11 9-16-1-22-7-4-10-4-6 1 4 4 3 14-3 22-6 7-9 13-6 13 2 0 10-6 16-14zm-509-16c0-5-5-10-11-10-5 0-7 5-4 10 3 6 8 10 11 10 2 0 4-4 4-10zm195 0c3-5 1-10-4-10-6 0-11 5-11 10 0 6 2 10 4 10 3 0 8-4 11-10zm359 2c3-5-1-9-9-9-8 0-12 4-9 9 3 4 7 8 9 8 2 0 6-4 9-8zm-234-36c0-3-4-8-10-11-5-3-10-1-10 4 0 6 5 11 10 11 6 0 10-2 10-4zm80-6c0-5-5-10-11-10-5 0-7 5-4 10 3 6 8 10 11 10 2 0 4-4 4-10zm-3e2-20c0-5-4-10-10-10-5 0-10 5-10 10 0 6 5 10 10 10 6 0 10-4 10-10zm180-20c0-5-2-10-4-10-3 0-8 5-11 10-3 6-1 10 4 10 6 0 11-4 11-10zm80 0c0-5-5-10-11-10-5 0-7 5-4 10 3 6 8 10 11 10 2 0 4-4 4-10zm140 5c0-7-30-13-34-7-3 4 4 9 15 9 10 1 19 0 19-2zm-490-41c0-8-19-13-24-6-3 5 1 9 9 9 8 0 15-2 15-3zm27-9c0-8-4-12-9-9-5 3-6 10-3 15 9 13 12 11 12-6zm118 6c3-5 2-12-3-15-5-3-9 1-9 9 0 17 3 19 12 6zm45 3c0-8-19-13-24-6-3 5 1 9 9 9 8 0 15-2 15-3zm3e2-9c0-2-9-3-19-2-11 0-18 5-15 9 4 6 34 0 34-7zm-620-35c0-5-2-10-4-10-3 0-8 5-11 10-3 6-1 10 4 10 6 0 11-4 11-10zm4e2 6c0-3-4-8-10-11-5-3-10-1-10 4 0 6 5 11 10 11 6 0 10-2 10-4zm155-6c3-5 1-10-4-10-6 0-11 5-11 10 0 6 2 10 4 10 3 0 8-4 11-10zm-362-25c4-8 3-16-1-19-4-3-9 4-9 15-2 23 3 25 10 4zm44-4c0-11-5-18-9-15-4 3-5 11-1 19 7 21 12 19 10-4zm-82-32c1-11-1-22-5-24-3-2-6 9-6 25 0 33 9 32 11-1zm125 21c0-5-5-10-11-10-5 0-7 5-4 10 3 6 8 10 11 10 2 0 4-4 4-10zm180-22c0-4-4-8-9-8-6 0-12 4-15 8-3 5 1 9 9 9 8 0 15-4 15-9zm-503-23c0-8-4-12-9-9-5 3-6 10-3 15 9 13 12 11 12-6zm118 5c3-5 1-10-4-10-6 0-11 5-11 10 0 6 2 10 4 10 3 0 8-4 11-10zm120 0c3-5 1-10-4-10-6 0-11 5-11 10 0 6 2 10 4 10 3 0 8-4 11-10zm79 2c3-5-1-9-9-9-8 0-12 4-9 9 3 4 7 8 9 8 2 0 6-4 9-8zm-319-42c3-5 1-10-4-10-6 0-11 5-11 10 0 6 2 10 4 10 3 0 8-4 11-10zm405 6c0-3-4-8-10-11-5-3-10-1-10 4 0 6 5 11 10 11 6 0 10-2 10-4zm155-6c3-5 1-10-4-10-6 0-11 5-11 10 0 6 2 10 4 10 3 0 8-4 11-10zm-220-28c-3-3-11 0-18 7-9 10-8 11 6 5 10-3 15-9 12-12zm-355-7c0-7-30-13-34-7-3 4 4 9 15 9 10 1 19 0 19-2zm180 1c0-3-4-8-10-11-5-3-10-1-10 4 0 6 5 11 10 11 6 0 10-2 10-4zm237-11c0-8-4-12-9-9-5 3-6 10-3 15 9 13 12 11 12-6zm83 9c0-8-19-13-24-6-3 5 1 9 9 9 8 0 15-2 15-3zm-420-24c0-5-4-10-10-10-5 0-10 5-10 10 0 6 5 10 10 10 6 0 10-4 10-10zm-105-9c3-5 2-12-3-15-5-3-9 1-9 9 0 17 3 19 12 6zm522-6c0-8-4-12-9-9-5 3-6 10-3 15 9 13 12 11 12-6zm-202-5c3-5 1-10-4-10-6 0-11 5-11 10 0 6 2 10 4 10 3 0 8-4 11-10zm119 2c3-5-1-9-9-9-8 0-12 4-9 9 3 4 7 8 9 8 2 0 6-4 9-8zm-254-26c0-2-6-9-14-15-11-9-16-9-22 0-4 7-3 9 4 5 6-3 13-2 17 4 6 10 15 14 15 6zm-146-18c-3-4-11-5-19-1-21 7-19 12 4 10 11 0 18-5 15-9zm326 8c0-3-4-8-10-11-5-3-10-1-10 4 0 6 5 11 10 11 6 0 10-2 10-4zm-323-41c0-8-4-12-9-9-5 3-6 10-3 15 9 13 12 11 12-6zm-120-10c0-8-4-12-9-9-5 3-6 10-3 15 9 13 12 11 12-6zm243 11c0-3-4-8-10-11-5-3-10-1-10 4 0 6 5 11 10 11 6 0 10-2 10-4zm80 0c0-3-4-8-10-11-5-3-10-1-10 4 0 6 5 11 10 11 6 0 10-2 10-4zm210-2c0-8-19-13-24-6-3 5 1 9 9 9 8 0 15-2 15-3zm27-9c0-8-4-12-9-9-5 3-6 10-3 15 9 13 12 11 12-6zm-480-24c0-11-5-18-9-15-4 3-5 11-1 19 7 21 12 19 10-4zm307 7c-3-4-9-8-15-8-5 0-9 4-9 8 0 5 7 9 15 9 8 0 12-4 9-9zm-340-16c3-5-1-9-9-9-8 0-12 4-9 9 3 4 7 8 9 8 2 0 6-4 9-8zm76-2c0-5-5-10-11-10-5 0-7 5-4 10 3 6 8 10 11 10 2 0 4-4 4-10zm195 1c3-5 2-12-3-15-5-3-9 1-9 9 0 17 3 19 12 6zm-360-41c3-5 1-10-4-10-6 0-11 5-11 10 0 6 2 10 4 10 3 0 8-4 11-10zm285 0c0-5-5-10-11-10-5 0-7 5-4 10 3 6 8 10 11 10 2 0 4-4 4-10zm84 2c3-5-1-9-9-9-8 0-12 4-9 9 3 4 7 8 9 8 2 0 6-4 9-8zm156 4c0-3-4-8-10-11-5-3-10-1-10 4 0 6 5 11 10 11 6 0 10-2 10-4zm75-6c3-5 1-10-4-10-6 0-11 5-11 10 0 6 2 10 4 10 3 0 8-4 11-10zm-155-40c0-5-2-10-4-10-3 0-8 5-11 10-3 6-1 10 4 10 6 0 11-4 11-10zm120 6c0-3-4-8-10-11-5-3-10-1-10 4 0 6 5 11 10 11 6 0 10-2 10-4zm-340-25c0-6-4-12-8-15-5-3-9 1-9 9 0 8 4 15 9 15 4 0 8-4 8-9zm-140-21c0-5-2-10-4-10-3 0-8 5-11 10-3 6-1 10 4 10 6 0 11-4 11-10zm234 1c3-5-2-15-12-22-15-12-16-12-5 2 7 9 10 19 6 22-3 4-4 7 0 7 3 0 8-4 11-9zm46 3c0-8-19-13-24-6-3 5 1 9 9 9 8 0 15-2 15-3zm-340-24c0-5-4-10-10-10-5 0-10 5-10 10 0 6 5 10 10 10 6 0 10-4 10-10zm135-20c3-5 1-10-4-10-6 0-11 5-11 10 0 6 2 10 4 10 3 0 8-4 11-10zm325 0c0-5-5-10-11-10-5 0-7 5-4 10 3 6 8 10 11 10 2 0 4-4 4-10zm75 0c3-5 1-10-4-10-6 0-11 5-11 10 0 6 2 10 4 10 3 0 8-4 11-10zm-598-29c0-11-5-18-9-15-4 3-5 11-1 19 7 21 12 19 10-4zm-37-5c0-3-4-8-10-11-5-3-10-1-10 4 0 6 5 11 10 11 6 0 10-2 10-4zm155-6c3-5 1-10-4-10-6 0-11 5-11 10 0 6 2 10 4 10 3 0 8-4 11-10zm2e2.0c3-5 1-10-4-10-6 0-11 5-11 10 0 6 2 10 4 10 3 0 8-4 11-10zm125 0c0-5-2-10-4-10-3 0-8 5-11 10-3 6-1 10 4 10 6 0 11-4 11-10zm-407-25c4-8 3-16-1-19-4-3-9 4-9 15-2 23 3 25 10 4zm-76-20c0-8-4-12-9-9-5 3-6 10-3 15 9 13 12 11 12-6zm117 7c3-5-1-9-9-9-8 0-12 4-9 9 3 4 7 8 9 8 2 0 6-4 9-8zm326-2c0-5-2-10-4-10-3 0-8 5-11 10-3 6-1 10 4 10 6 0 11-4 11-10zm80 0c0-5-5-10-11-10-5 0-7 5-4 10 3 6 8 10 11 10 2 0 4-4 4-10zm55-28c-3-3-11 0-18 7-9 10-8 11 6 5 10-3 15-9 12-12zm-581-10c2-4-5-9-17-9-17-2-19 0-7 7 18 12 18 12 24 2zm166-2c0-5-2-10-4-10-3 0-8 5-11 10-3 6-1 10 4 10 6 0 11-4 11-10zm120 0c0-5-2-10-4-10-3 0-8 5-11 10-3 6-1 10 4 10 6 0 11-4 11-10zm-360-36c0-8-19-13-24-6-3 5 1 9 9 9 8 0 15-2 15-3zm2e2-4c0-5-2-10-4-10-3 0-8 5-11 10-3 6-1 10 4 10 6 0 11-4 11-10zm154-2c-3-4-11-5-19-1-21 7-19 12 4 10 11 0 18-5 15-9zm166 2c0-5-5-10-11-10-5 0-7 5-4 10 3 6 8 10 11 10 2 0 4-4 4-10zm-523-35c0-8-4-12-9-9-5 3-6 10-3 15 9 13 12 11 12-6zm123 1c0-3-4-8-10-11-5-3-10-1-10 4 0 6 5 11 10 11 6 0 10-2 10-4zm234-4c2-4-5-9-17-9-17-2-19 0-7 7 18 12 18 12 24 2zm46-2c0-5-5-10-11-10-5 0-7 5-4 10 3 6 8 10 11 10 2 0 4-4 4-10zm-5-41c2-3-8-5-25-5-16 0-27 3-25 6 5 8 42 6 50-1zm201-1c3-4-1-5-10-4-8 1-18 5-22 8-3 4 1 5 10 4 8-1 18-5 22-8zm-556-38c0-5-5-10-11-10-5 0-7 5-4 10 3 6 8 10 11 10 2 0 4-4 4-10zm120 0c0-5-5-10-11-10-5 0-7 5-4 10 3 6 8 10 11 10 2 0 4-4 4-10zm-220-20c0-5-4-10-10-10-5 0-10 5-10 10 0 6 5 10 10 10 6 0 10-4 10-10zm140-20c0-5-2-10-4-10-3 0-8 5-11 10-3 6-1 10 4 10 6 0 11-4 11-10zm2e2 6c0-3-4-8-10-11-5-3-10-1-10 4 0 6 5 11 10 11 6 0 10-2 10-4zm35-6c3-5 1-10-4-10-6 0-11 5-11 10 0 6 2 10 4 10 3 0 8-4 11-10zm160 0c3-5 1-10-4-10-6 0-11 5-11 10 0 6 2 10 4 10 3 0 8-4 11-10zm-440-40c3-5 1-10-4-10-6 0-11 5-11 10 0 6 2 10 4 10 3 0 8-4 11-10zm122-5c0-8-4-12-9-9-5 3-6 10-3 15 9 13 12 11 12-6zm283 5c0-5-5-10-11-10-5 0-7 5-4 10 3 6 8 10 11 10 2 0 4-4 4-10zm-480-40c0-5-2-10-4-10-3 0-8 5-11 10-3 6-1 10 4 10 6 0 11-4 11-10zm115 0c3-5 1-10-4-10-6 0-11 5-11 10 0 6 2 10 4 10 3 0 8-4 11-10zm79 2c3-5-1-9-9-9-8 0-12 4-9 9 3 4 7 8 9 8 2 0 6-4 9-8zm79-27c4-8 3-16-1-19-4-3-9 4-9 15-2 23 3 25 10 4zm44-4c0-11-5-18-9-15-4 3-5 11-1 19 7 21 12 19 10-4zm-444-26c-7-21-12-19-10 4 0 11 5 18 9 15 4-3 5-11 1-19zm47 19c0-8-19-13-24-6-3 5 1 9 9 9 8 0 15-2 15-3zm0-38c0-3-4-8-10-11-5-3-10-1-10 4 0 6 5 11 10 11 6 0 10-2 10-4zm195-6c3-5 1-10-4-10-6 0-11 5-11 10 0 6 2 10 4 10 3 0 8-4 11-10zm85 0c0-5-5-10-11-10-5 0-7 5-4 10 3 6 8 10 11 10 2 0 4-4 4-10zm155 0c3-5 1-10-4-10-6 0-11 5-11 10 0 6 2 10 4 10 3 0 8-4 11-10zm119-2c-3-4-11-5-19-1-21 7-19 12 4 10 11 0 18-5 15-9zm-514-38c0-5-5-10-11-10-5 0-7 5-4 10 3 6 8 10 11 10 2 0 4-4 4-10zm80 4c0-8-19-13-24-6-3 5 1 9 9 9 8 0 15-2 15-3zm280-4c0-5-5-10-11-10-5 0-7 5-4 10 3 6 8 10 11 10 2 0 4-4 4-10zm116-19c0-17-3-28-6-26-5 3-6 38-1 53 4 10 7-3 7-27zm-399-16c0-8-4-12-9-9-5 3-6 10-3 15 9 13 12 11 12-6zm-117-5c0-5-5-10-11-10-5 0-7 5-4 10 3 6 8 10 11 10 2 0 4-4 4-10zm435 0c3-5 1-10-4-10-6 0-11 5-11 10 0 6 2 10 4 10 3 0 8-4 11-10zm42-12c2-17 0-19-7-8-5 8-6 18-4 22 8 12 10 10 11-14zm-617-2c0-2-7-7-16-10-8-3-12-2-9 4 6 10 25 14 25 6zm480-5c0-6-4-12-8-15-5-3-9 1-9 9 0 8 4 15 9 15 4 0 8-4 8-9zm-420-21c0-5-2-10-4-10-3 0-8 5-11 10-3 6-1 10 4 10 6 0 11-4 11-10zm315 0c3-5 1-10-4-10-6 0-11 5-11 10 0 6 2 10 4 10 3 0 8-4 11-10zm-169-22c3-4-1-5-10-4-8 1-18 5-22 8-3 4 1 5 10 4 8-1 18-5 22-8zm29 3c3-5 2-12-3-15-5-3-9 1-9 9 0 17 3 19 12 6zm-1e2-21c3-5 1-10-4-10-6 0-11 5-11 10 0 6 2 10 4 10 3 0 8-4 11-10zm421-2c3-4-1-5-10-4-8 1-18 5-22 8-3 4 1 5 10 4 8-1 18-5 22-8zm-556-14c0-8-19-13-24-6-3 5 1 9 9 9 8 0 15-2 15-3zm253-9c4-8 3-16-1-19-4-3-9 4-9 15-2 23 3 25 10 4zm44-4c0-11-5-18-9-15-4 3-5 11-1 19 7 21 12 19 10-4zm299-7c1-9 0-13-4-10-3 4-7 14-8 22-1 9 0 13 4 10 3-4 7-14 8-22zm-256-4c0-5-5-10-11-10-5 0-7 5-4 10 3 6 8 10 11 10 2 0 4-4 4-10zm90 4c0-8-19-13-24-6-3 5 1 9 9 9 8 0 15-2 15-3zm27-9c0-8-4-12-9-9-5 3-6 10-3 15 9 13 12 11 12-6zm83 11c0-3-4-8-10-11-5-3-10-1-10 4 0 6 5 11 10 11 6 0 10-2 10-4zm-543-31c0-8-4-12-9-9-5 3-6 10-3 15 9 13 12 11 12-6zm47 3c-3-4-9-8-15-8-5 0-9 4-9 8 0 5 7 9 15 9 8 0 12-4 9-9zm293-13c0-8-4-12-9-9-5 3-6 10-3 15 9 13 12 11 12-6zm-117 1c0-3-4-8-10-11-5-3-10-1-10 4 0 6 5 11 10 11 6 0 10-2 10-4zm80-6c0-5-5-10-11-10-5 0-7 5-4 10 3 6 8 10 11 10 2 0 4-4 4-10zm197-5c0-8-4-12-9-9-5 3-6 10-3 15 9 13 12 11 12-6zm-99-20c-3-3-9 2-12 12-6 14-5 15 5 6 7-7 10-15 7-18zm-448-11c0-8-19-13-24-6-3 5 1 9 9 9 8 0 15-2 15-3zm27-9c0-8-4-12-9-9-5 3-6 10-3 15 9 13 12 11 12-6zm118 5c3-5 1-10-4-10-6 0-11 5-11 10 0 6 2 10 4 10 3 0 8-4 11-10zm399 2c2-4-5-9-17-9-17-2-19 0-7 7 18 12 18 12 24 2zm-84-18c0-8-19-13-24-6-3 5 1 9 9 9 8 0 15-2 15-3zm-435-24c3-5 1-10-4-10-6 0-11 5-11 10 0 6 2 10 4 10 3 0 8-4 11-10zm360 0c3-5 1-10-4-10-6 0-11 5-11 10 0 6 2 10 4 10 3 0 8-4 11-10zm119-2c-3-4-11-5-19-1-21 7-19 12 4 10 11 0 18-5 15-9zm-221-13c-3-9-8-14-10-11-3 3-2 9 2 15 9 16 15 13 8-4zm-203-21c0-8-19-13-24-6-3 5 1 9 9 9 8 0 15-2 15-3zm27-16c2-17 0-19-7-8-5 8-6 18-4 22 8 12 10 10 11-14zm83 18c0-3-4-8-10-11-5-3-10-1-10 4 0 6 5 11 10 11 6 0 10-2 10-4zm314-4c2-4-5-9-17-9-17-2-19 0-7 7 18 12 18 12 24 2zm-569-22c3-6-1-7-9-4-18 7-21 14-7 14 6 0 13-4 16-10zm105-16c0-8-19-13-24-6-3 5 1 9 9 9 8 0 15-2 15-3zm105-4c3-5 1-10-4-10-6 0-11 5-11 10 0 6 2 10 4 10 3 0 8-4 11-10zm85 6c0-3-4-8-10-11-5-3-10-1-10 4 0 6 5 11 10 11 6 0 10-2 10-4zm80-6c0-5-2-10-4-10-3 0-8 5-11 10-3 6-1 10 4 10 6 0 11-4 11-10zm177-15c0-8-4-12-9-9-5 3-6 10-3 15 9 13 12 11 12-6zm-603-3c3-5-1-9-9-9-8 0-12 4-9 9 3 4 7 8 9 8 2 0 6-4 9-8zm86-6c0-2-6-9-14-15-11-9-16-9-22 0-4 7-3 9 4 5 6-3 13-2 17 4 6 10 15 14 15 6zm55-5c3-5 2-12-3-15-5-3-9 1-9 9 0 17 3 19 12 6zm405-11c0-5-5-10-11-10-5 0-7 5-4 10 3 6 8 10 11 10 2 0 4-4 4-10zm-485-29c3-5 2-12-3-15-5-3-9 1-9 9 0 17 3 19 12 6zm118-26c-7-21-12-19-10 4 0 11 5 18 9 15 4-3 5-11 1-19zm44 3c2-17 0-19-7-8-5 8-6 18-4 22 8 12 10 10 11-14zm123 12c0-5-2-10-4-10-3 0-8 5-11 10-3 6-1 10 4 10 6 0 11-4 11-10zm80 0c0-5-5-10-11-10-5 0-7 5-4 10 3 6 8 10 11 10 2 0 4-4 4-10zm160 0c0-5-5-10-11-10-5 0-7 5-4 10 3 6 8 10 11 10 2 0 4-4 4-10zm-643-45c0-8-4-12-9-9-5 3-6 10-3 15 9 13 12 11 12-6zm163 11c0-3-4-8-10-11-5-3-10-1-10 4 0 6 5 11 10 11 6 0 10-2 10-4zm424-28c-3-4-9-8-15-8-5 0-9 4-9 8 0 5 7 9 15 9 8 0 12-4 9-9zm-589-18c3-5 1-10-4-10-6 0-11 5-11 10 0 6 2 10 4 10 3 0 8-4 11-10zm78-25c4-8 3-16-1-19-4-3-9 4-9 15-2 23 3 25 10 4zm44-4c0-11-5-18-9-15-4 3-5 11-1 19 7 21 12 19 10-4zm157-10c3-5-2-15-12-22-15-12-16-12-5 2 7 9 10 19 6 22-3 4-4 7 0 7 3 0 8-4 11-9zm46 3c0-8-19-13-24-6-3 5 1 9 9 9 8 0 15-2 15-3zm115-4c3-5 1-10-4-10-6 0-11 5-11 10 0 6 2 10 4 10 3 0 8-4 11-10zm85 0c0-5-5-10-11-10-5 0-7 5-4 10 3 6 8 10 11 10 2 0 4-4 4-10zm36-36c1-9 0-13-4-10-3 4-7 14-8 22-1 9 0 13 4 10 3-4 7-14 8-22zm-32-2c3-5-1-9-9-9-8 0-12 4-9 9 3 4 7 8 9 8 2 0 6-4 9-8zm-131-27c4-8 3-16-1-19-4-3-9 4-9 15-2 23 3 25 10 4zm-423-11c0-8-19-13-24-6-3 5 1 9 9 9 8 0 15-2 15-3zm70-4c0-5-2-10-4-10-3 0-8 5-11 10-3 6-1 10 4 10 6 0 11-4 11-10zm120 6c0-3-4-8-10-11-5-3-10-1-10 4 0 6 5 11 10 11 6 0 10-2 10-4zm75-6c3-5 1-10-4-10-6 0-11 5-11 10 0 6 2 10 4 10 3 0 8-4 11-10zm120 0c3-5 1-10-4-10-6 0-11 5-11 10 0 6 2 10 4 10 3 0 8-4 11-10zm85 0c0-5-2-10-4-10-3 0-8 5-11 10-3 6-1 10 4 10 6 0 11-4 11-10zm-485-29c3-5 2-12-3-15-5-3-9 1-9 9 0 17 3 19 12 6zm-75-5c0-3-4-8-10-11-5-3-10-1-10 4 0 6 5 11 10 11 6 0 10-2 10-4zm2e2-6c0-5-5-10-11-10-5 0-7 5-4 10 3 6 8 10 11 10 2 0 4-4 4-10zm115 0c3-5 1-10-4-10-6 0-11 5-11 10 0 6 2 10 4 10 3 0 8-4 11-10zm2e2.0c3-5 1-10-4-10-6 0-11 5-11 10 0 6 2 10 4 10 3 0 8-4 11-10zm-360-40c3-5 1-10-4-10-6 0-11 5-11 10 0 6 2 10 4 10 3 0 8-4 11-10zm252-21c-9-6-14-15-11-21 4-7 2-8-5-4-14 9 3 36 23 36 6 0 3-5-7-11zm-407-19c0-5-5-10-11-10-5 0-7 5-4 10 3 6 8 10 11 10 2 0 4-4 4-10zm2e2 6c0-3-4-8-10-11-5-3-10-1-10 4 0 6 5 11 10 11 6 0 10-2 10-4zm164-4c3-5-1-9-9-9-8 0-12 4-9 9 3 4 7 8 9 8 2 0 6-4 9-8zm-264-23c0-5-4-9-8-9-5 0-9 7-9 15 0 8 4 12 9 9 4-3 8-9 8-15zm-180-19c0-5-2-10-4-10-3 0-8 5-11 10-3 6-1 10 4 10 6 0 11-4 11-10zm355 0c3-5 1-10-4-10-6 0-11 5-11 10 0 6 2 10 4 10 3 0 8-4 11-10zm285 0c0-5-5-10-11-10-5 0-7 5-4 10 3 6 8 10 11 10 2 0 4-4 4-10zm-29-27c13-16 12-17-3-4-10 7-18 15-18 17 0 8 8 3 21-13zm-374-8c0-8-4-12-9-9-5 3-6 10-3 15 9 13 12 11 12-6zm-82-5c3-5 1-10-4-10-6 0-11 5-11 10 0 6 2 10 4 10 3 0 8-4 11-10zm45 0c0-5-5-10-11-10-5 0-7 5-4 10 3 6 8 10 11 10 2 0 4-4 4-10zm115 1c3-5 2-12-3-15-5-3-9 1-9 9 0 17 3 19 12 6zm125 3c0-8-19-13-24-6-3 5 1 9 9 9 8 0 15-2 15-3zm80 2c0-3-4-8-10-11-5-3-10-1-10 4 0 6 5 11 10 11 6 0 10-2 10-4zm-83-41c0-8-4-12-9-9-5 3-6 10-3 15 9 13 12 11 12-6zm-402-5c3-5 1-10-4-10-6 0-11 5-11 10 0 6 2 10 4 10 3 0 8-4 11-10zm305-5c0-2-9-3-19-2-11 0-18 5-15 9 4 6 34 0 34-7zm-99-18c-6-8-7-18-3-22 4-5 1-5-6-1-10 6-10 11-1 22 6 8 14 14 16 14 3 0 0-6-6-13zm-201-11c0-3-4-8-10-11-5-3-10-1-10 4 0 6 5 11 10 11 6 0 10-2 10-4zm164-4c3-5-1-9-9-9-8 0-12 4-9 9 3 4 7 8 9 8 2 0 6-4 9-8zm156-2c0-5-5-10-11-10-5 0-7 5-4 10 3 6 8 10 11 10 2 0 4-4 4-10zm115 1c3-5 2-12-3-15-5-3-9 1-9 9 0 17 3 19 12 6zm-544-34c-10-9-11-8-5 6 3 10 9 15 12 12 3-3 0-11-7-18zm224-7c3-5 1-10-4-10-6 0-11 5-11 10 0 6 2 10 4 10 3 0 8-4 11-10zm325 0c0-5-5-10-11-10-5 0-7 5-4 10 3 6 8 10 11 10 2 0 4-4 4-10zm-180-20c0-5-4-10-10-10-5 0-10 5-10 10 0 6 5 10 10 10 6 0 10-4 10-10zm213-5c4-8 3-16-1-19-4-3-9 4-9 15-2 23 3 25 10 4zm-633-11c0-8-19-13-24-6-3 5 1 9 9 9 8 0 15-2 15-3zm540-23c0-6-4-12-8-15-5-3-9 1-9 9 0 8 4 15 9 15 4 0 8-4 8-9zm-543-16c0-8-4-12-9-9-5 3-6 10-3 15 9 13 12 11 12-6zm123 1c0-3-4-8-10-11-5-3-10-1-10 4 0 6 5 11 10 11 6 0 10-2 10-4zm80-6c0-5-2-10-4-10-3 0-8 5-11 10-3 6-1 10 4 10 6 0 11-4 11-10zm120 0c0-5-2-10-4-10-3 0-8 5-11 10-3 6-1 10 4 10 6 0 11-4 11-10zm-285-40c3-5 1-10-4-10-6 0-11 5-11 10 0 6 2 10 4 10 3 0 8-4 11-10zm159-2c-3-4-11-5-19-1-21 7-19 12 4 10 11 0 18-5 15-9zm66 7c0-7-30-13-34-7-3 4 4 9 15 9 10 1 19 0 19-2zm180-5c0-5-2-10-4-10-3 0-8 5-11 10-3 6-1 10 4 10 6 0 11-4 11-10zm40 6c0-3-4-8-10-11-5-3-10-1-10 4 0 6 5 11 10 11 6 0 10-2 10-4zm-520-40c0-3-4-8-10-11-5-3-10-1-10 4 0 6 5 11 10 11 6 0 10-2 10-4zm84-4c3-5-1-9-9-9-8 0-12 4-9 9 3 4 7 8 9 8 2 0 6-4 9-8zm150 0c2-4-5-9-17-9-17-2-19 0-7 7 18 12 18 12 24 2zm46-2c0-5-5-10-11-10-5 0-7 5-4 10 3 6 8 10 11 10 2 0 4-4 4-10zm80 0c0-5-5-10-11-10-5 0-7 5-4 10 3 6 8 10 11 10 2 0 4-4 4-10zm-2e2-40c0-5-2-10-4-10-3 0-8 5-11 10-3 6-1 10 4 10 6 0 11-4 11-10zm115-1c2-3-8-5-25-5-16 0-27 3-25 6 5 8 42 6 50-1zm242-4c0-8-4-12-9-9-5 3-6 10-3 15 9 13 12 11 12-6zm-601-50c-1-13-4-27-7-30-5-4-4 41 0 53 4 10 8-2 7-23zm117 0c-7-21-12-19-10 4 0 11 5 18 9 15 4-3 5-11 1-19zm47 19c0-8-19-13-24-6-3 5 1 9 9 9 8 0 15-2 15-3zm360 2c0-3-4-8-10-11-5-3-10-1-10 4 0 6 5 11 10 11 6 0 10-2 10-4zm74-4c3-5-1-9-9-9-8 0-12 4-9 9 3 4 7 8 9 8 2 0 6-4 9-8zm-178-22c0-12-4-16-9-11-5 5-6 14-3 20 10 15 12 14 12-9zm-152 2c3-5-1-9-9-9-8 0-12 4-9 9 3 4 7 8 9 8 2 0 6-4 9-8zm196-4c0-4-4-8-9-8-6 0-12 4-15 8-3 5 1 9 9 9 8 0 15-4 15-9zm-426-16c3-5-1-9-9-9-8 0-12 4-9 9 3 4 7 8 9 8 2 0 6-4 9-8zm126 4c0-3-4-8-10-11-5-3-10-1-10 4 0 6 5 11 10 11 6 0 10-2 10-4zm357-11c0-8-4-12-9-9-5 3-6 10-3 15 9 13 12 11 12-6zm-547-31c0-8-19-13-24-6-3 5 1 9 9 9 8 0 15-2 15-3zm27-9c0-8-4-12-9-9-5 3-6 10-3 15 9 13 12 11 12-6zm203 5c0-5-2-10-4-10-3 0-8 5-11 10-3 6-1 10 4 10 6 0 11-4 11-10zm120 0c0-5-5-10-11-10-5 0-7 5-4 10 3 6 8 10 11 10 2 0 4-4 4-10zm194 2c3-5-1-9-9-9-8 0-12 4-9 9 3 4 7 8 9 8 2 0 6-4 9-8zm-414-16c0-2-7-7-16-10-8-3-12-2-9 4 6 10 25 14 25 6zm-63-31c0-8-4-12-9-9-5 3-6 10-3 15 9 13 12 11 12-6zm123 5c0-5-5-10-11-10-5 0-7 5-4 10 3 6 8 10 11 10 2 0 4-4 4-10zm2e2.0c0-5-5-10-11-10-5 0-7 5-4 10 3 6 8 10 11 10 2 0 4-4 4-10zm80 6c0-3-4-8-10-11-5-3-10-1-10 4 0 6 5 11 10 11 6 0 10-2 10-4zm-502-31c-3-3-9 2-12 12-6 14-5 15 5 6 7-7 10-15 7-18zm96-13c2-4-5-9-17-9-17-2-19 0-7 7 18 12 18 12 24 2zm281-2c3-5 1-10-4-10-6 0-11 5-11 10 0 6 2 10 4 10 3 0 8-4 11-10zm215 4c0-8-19-13-24-6-3 5 1 9 9 9 8 0 15-2 15-3zm-290-44c0-5-5-10-11-10-5 0-7 5-4 10 3 6 8 10 11 10 2 0 4-4 4-10zm120 0c0-5-2-10-4-10-3 0-8 5-11 10-3 6-1 10 4 10 6 0 11-4 11-10zm-440-34c0-3-4-8-10-11-5-3-10-1-10 4 0 6 5 11 10 11 6 0 10-2 10-4zm120-6c0-5-2-10-4-10-3 0-8 5-11 10-3 6-1 10 4 10 6 0 11-4 11-10zm80 6c0-3-4-8-10-11-5-3-10-1-10 4 0 6 5 11 10 11 6 0 10-2 10-4zm-120-46c0-5-2-10-4-10-3 0-8 5-11 10-3 6-1 10 4 10 6 0 11-4 11-10zm80 0c0-5-5-10-11-10-5 0-7 5-4 10 3 6 8 10 11 10 2 0 4-4 4-10zm314-2c-3-4-11-5-19-1-21 7-19 12 4 10 11 0 18-5 15-9zm86 2c0-5-2-10-4-10-3 0-8 5-11 10-3 6-1 10 4 10 6 0 11-4 11-10zm-640-40c0-5-2-10-4-10-3 0-8 5-11 10-3 6-1 10 4 10 6 0 11-4 11-10zm395 1c3-5 2-12-3-15-5-3-9 1-9 9 0 17 3 19 12 6zm45 3c0-8-19-13-24-6-3 5 1 9 9 9 8 0 15-2 15-3zm114-2c2-4-5-9-17-9-17-2-19 0-7 7 18 12 18 12 24 2zm-314-42c0-5-2-10-4-10-3 0-8 5-11 10-3 6-1 10 4 10 6 0 11-4 11-10zm155 0c3-5 1-10-4-10-6 0-11 5-11 10 0 6 2 10 4 10 3 0 8-4 11-10zm-464-27c13-16 12-17-3-4-17 13-22 21-14 21 2 0 10-8 17-17zm582 2c4-8 3-16-1-19-4-3-9 4-9 15-2 23 3 25 10 4zm44-4c0-11-5-18-9-15-4 3-5 11-1 19 7 21 12 19 10-4zm-562-32c1-11-1-22-5-24-3-2-6 9-6 25 0 33 9 32 11-1zm45 27c0-3-4-8-10-11-5-3-10-1-10 4 0 6 5 11 10 11 6 0 10-2 10-4zm80-6c0-5-5-10-11-10-5 0-7 5-4 10 3 6 8 10 11 10 2 0 4-4 4-10zm355 0c3-5 1-10-4-10-6 0-11 5-11 10 0 6 2 10 4 10 3 0 8-4 11-10zm-175-20c0-5-4-10-10-10-5 0-10 5-10 10 0 6 5 10 10 10 6 0 10-4 10-10zm-267-35c-7-21-12-19-10 4 0 11 5 18 9 15 4-3 5-11 1-19zm44 3c2-17 0-19-7-8-5 8-6 18-4 22 8 12 10 10 11-14zm438 12c3-5 1-10-4-10-6 0-11 5-11 10 0 6 2 10 4 10 3 0 8-4 11-10zm-315-34c0-3-4-8-10-11-5-3-10-1-10 4 0 6 5 11 10 11 6 0 10-2 10-4zm154-5c3-5-2-15-12-22-15-12-16-12-5 2 7 9 10 19 6 22-3 4-4 7 0 7 3 0 8-4 11-9zm46 3c0-8-19-13-24-6-3 5 1 9 9 9 8 0 15-2 15-3zm-303-19c0-8-4-12-9-9-5 3-6 10-3 15 9 13 12 11 12-6zm178-17c5 4 5 1 1-6-6-10-11-10-22-1-8 6-14 14-14 16 0 3 6 0 13-6 8-6 18-7 22-3zm-315-2c0-3-4-8-10-11-5-3-10-1-10 4 0 6 5 11 10 11 6 0 10-2 10-4zm480-6c0-5-2-10-4-10-3 0-8 5-11 10-3 6-1 10 4 10 6 0 11-4 11-10zm-163-35c0-8-4-12-9-9-5 3-6 10-3 15 9 13 12 11 12-6zm-202-5c3-5 1-10-4-10-6 0-11 5-11 10 0 6 2 10 4 10 3 0 8-4 11-10zm85 0c0-5-2-10-4-10-3 0-8 5-11 10-3 6-1 10 4 10 6 0 11-4 11-10zm240 6c0-3-4-8-10-11-5-3-10-1-10 4 0 6 5 11 10 11 6 0 10-2 10-4zm-2e2-46c0-5-5-10-11-10-5 0-7 5-4 10 3 6 8 10 11 10 2 0 4-4 4-10zm240 0c0-5-5-10-11-10-5 0-7 5-4 10 3 6 8 10 11 10 2 0 4-4 4-10zm-520-34c0-3-4-8-10-11-5-3-10-1-10 4 0 6 5 11 10 11 6 0 10-2 10-4zm80-6c0-5-2-10-4-10-3 0-8 5-11 10-3 6-1 10 4 10 6 0 11-4 11-10zm155 0c3-5 1-10-4-10-6 0-11 5-11 10 0 6 2 10 4 10 3 0 8-4 11-10zm165 0c0-5-5-10-11-10-5 0-7 5-4 10 3 6 8 10 11 10 2 0 4-4 4-10zm-123-35c0-8-4-12-9-9-5 3-6 10-3 15 9 13 12 11 12-6zm-4e2-10c0-8-4-12-9-9-5 3-6 10-3 15 9 13 12 11 12-6zm118 6c3-5 2-12-3-15-5-3-9 1-9 9 0 17 3 19 12 6zm80-1c3-5 1-10-4-10-6 0-11 5-11 10 0 6 2 10 4 10 3 0 8-4 11-10zm169 2c3-5-1-9-9-9-8 0-12 4-9 9 3 4 7 8 9 8 2 0 6-4 9-8zm236-2c0-5-2-10-4-10-3 0-8 5-11 10-3 6-1 10 4 10 6 0 11-4 11-10zm-47-25c4-8 3-16-1-19-4-3-9 4-9 15-2 23 3 25 10 4zm-596-27c2-17 0-19-7-8-5 8-6 18-4 22 8 12 10 10 11-14zm37 14c3-5-1-9-9-9-8 0-12 4-9 9 3 4 7 8 9 8 2 0 6-4 9-8zm137-9c12-16 12-17-2-6-9 7-20 9-24 5-5-4-5-1-1 6 9 16 11 15 27-5zm384 7c3-5 1-10-4-10-6 0-11 5-11 10 0 6 2 10 4 10 3 0 8-4 11-10zm95 4c0-8-19-13-24-6-3 5 1 9 9 9 8 0 15-2 15-3zm-330-44c0-5-2-10-4-10-3 0-8 5-11 10-3 6-1 10 4 10 6 0 11-4 11-10zm154-2c-3-4-11-5-19-1-21 7-19 12 4 10 11 0 18-5 15-9zm123-3c0-8-4-12-9-9-5 3-6 10-3 15 9 13 12 11 12-6zm-497-15c0-5-4-10-10-10-5 0-10 5-10 10 0 6 5 10 10 10 6 0 10-4 10-10zm95-20c3-5 1-10-4-10-6 0-11 5-11 10 0 6 2 10 4 10 3 0 8-4 11-10zm45 4c0-8-19-13-24-6-3 5 1 9 9 9 8 0 15-2 15-3zm120 2c0-3-4-8-10-11-5-3-10-1-10 4 0 6 5 11 10 11 6 0 10-2 10-4zm114-4c2-4-5-9-17-9-17-2-19 0-7 7 18 12 18 12 24 2zm122-4c3-4-1-5-10-4-8 1-18 5-22 8-3 4 1 5 10 4 8-1 18-5 22-8zm-616-12c0-2-7-7-16-10-8-3-12-2-9 4 6 10 25 14 25 6zm60-20c0-3-4-8-10-11-5-3-10-1-10 4 0 6 5 11 10 11 6 0 10-2 10-4zm515-6c3-5 1-10-4-10-6 0-11 5-11 10 0 6 2 10 4 10 3 0 8-4 11-10zm-635-40c0-5-2-10-4-10-3 0-8 5-11 10-3 6-1 10 4 10 6 0 11-4 11-10zm40 4c0-8-19-13-24-6-3 5 1 9 9 9 8 0 15-2 15-3zm2e2 2c0-3-4-8-10-11-5-3-10-1-10 4 0 6 5 11 10 11 6 0 10-2 10-4zm120 0c0-3-4-8-10-11-5-3-10-1-10 4 0 6 5 11 10 11 6 0 10-2 10-4zm235-6c3-5 1-10-4-10-6 0-11 5-11 10 0 6 2 10 4 10 3 0 8-4 11-10zm-601-42c-3-4-11-5-19-1-21 7-19 12 4 10 11 0 18-5 15-9zm46 2c0-5-2-10-4-10-3 0-8 5-11 10-3 6-1 10 4 10 6 0 11-4 11-10zm280 6c0-3-4-8-10-11-5-3-10-1-10 4 0 6 5 11 10 11 6 0 10-2 10-4zm33-21c-7-21-12-19-10 4 0 11 5 18 9 15 4-3 5-11 1-19zm44 3c2-17 0-19-7-8-5 8-6 18-4 22 8 12 10 10 11-14zm163 12c0-5-5-10-11-10-5 0-7 5-4 10 3 6 8 10 11 10 2 0 4-4 4-10zm-566-38c2-4-5-9-17-9-17-2-19 0-7 7 18 12 18 12 24 2zm166-2c0-5-2-10-4-10-3 0-8 5-11 10-3 6-1 10 4 10 6 0 11-4 11-10zm280 6c0-3-4-8-10-11-5-3-10-1-10 4 0 6 5 11 10 11 6 0 10-2 10-4zm-320-46c0-5-2-10-4-10-3 0-8 5-11 10-3 6-1 10 4 10 6 0 11-4 11-10zm160 0c0-5-2-10-4-10-3 0-8 5-11 10-3 6-1 10 4 10 6 0 11-4 11-10zm160 0c0-5-5-10-11-10-5 0-7 5-4 10 3 6 8 10 11 10 2 0 4-4 4-10zm-487-25c4-8 3-16-1-19-4-3-9 4-9 15-2 23 3 25 10 4zm44-4c0-11-5-18-9-15-4 3-5 11-1 19 7 21 12 19 10-4zm39-30c0-17-3-28-6-26-5 3-6 38-1 53 4 10 7-3 7-27zm359 20c3-5 2-12-3-15-5-3-9 1-9 9 0 17 3 19 12 6zm-171-23c-3-4-9-8-15-8-5 0-9 4-9 8 0 5 7 9 15 9 8 0 12-4 9-9zm-349-18c3-5 1-10-4-10-6 0-11 5-11 10 0 6 2 10 4 10 3 0 8-4 11-10zm78-15c-7-21-12-19-10 4 0 11 5 18 9 15 4-3 5-11 1-19zm47 15c0-5-5-10-11-10-5 0-7 5-4 10 3 6 8 10 11 10 2 0 4-4 4-10zm420-5c0-2-9-3-19-2-11 0-18 5-15 9 4 6 34 0 34-7zm-147-20c4-8 3-16-1-19-4-3-9 4-9 15-2 23 3 25 10 4zm-113-15c0-5-5-10-11-10-5 0-7 5-4 10 3 6 8 10 11 10 2 0 4-4 4-10zm160 0c0-5-2-10-4-10-3 0-8 5-11 10-3 6-1 10 4 10 6 0 11-4 11-10zm-405-40c3-5 1-10-4-10-6 0-11 5-11 10 0 6 2 10 4 10 3 0 8-4 11-10zm85 0c0-5-5-10-11-10-5 0-7 5-4 10 3 6 8 10 11 10 2 0 4-4 4-10zm435 0c3-5 1-10-4-10-6 0-11 5-11 10 0 6 2 10 4 10 3 0 8-4 11-10zm-635-14c0-3-4-8-10-11-5-3-10-1-10 4 0 6 5 11 10 11 6 0 10-2 10-4zm330-22c0-8-19-13-24-6-3 5 1 9 9 9 8 0 15-2 15-3zm26-9c-1-8-5-17-8-21-5-4-4 16 1 34 3 9 9-1 7-13zm84 11c0-3-4-8-10-11-5-3-10-1-10 4 0 6 5 11 10 11 6 0 10-2 10-4zm115-6c3-5 1-10-4-10-6 0-11 5-11 10 0 6 2 10 4 10 3 0 8-4 11-10zm-537-25c-3-3-9 2-12 12-6 14-5 15 5 6 7-7 10-15 7-18zm42 5c0-5-5-10-11-10-5 0-7 5-4 10 3 6 8 10 11 10 2 0 4-4 4-10zm413-5c4-8 3-16-1-19-4-3-9 4-9 15-2 23 3 25 10 4zm-193-9c0-3-4-8-10-11-5-3-10-1-10 4 0 6 5 11 10 11 6 0 10-2 10-4zm117-11c0-8-4-12-9-9-5 3-6 10-3 15 9 13 12 11 12-6zm118 5c3-5 1-10-4-10-6 0-11 5-11 10 0 6 2 10 4 10 3 0 8-4 11-10zm-464-33c-10-9-11-8-5 6 3 10 9 15 12 12 3-3 0-11-7-18zm-54-12c0-8-4-12-9-9-5 3-6 10-3 15 9 13 12 11 12-6zm158 5c3-5 1-10-4-10-6 0-11 5-11 10 0 6 2 10 4 10 3 0 8-4 11-10zm239 2c2-4-5-9-17-9-17-2-19 0-7 7 18 12 18 12 24 2zm166-2c0-5-2-10-4-10-3 0-8 5-11 10-3 6-1 10 4 10 6 0 11-4 11-10zm-566-38c3-5-1-9-9-9-8 0-12 4-9 9 3 4 7 8 9 8 2 0 6-4 9-8zm126 4c0-3-4-8-10-11-5-3-10-1-10 4 0 6 5 11 10 11 6 0 10-2 10-4zm40-6c0-5-2-10-4-10-3 0-8 5-11 10-3 6-1 10 4 10 6 0 11-4 11-10zm155 0c3-5 1-10-4-10-6 0-11 5-11 10 0 6 2 10 4 10 3 0 8-4 11-10zm-395-34c0-3-4-8-10-11-5-3-10-1-10 4 0 6 5 11 10 11 6 0 10-2 10-4zm515-6c3-5 1-10-4-10-6 0-11 5-11 10 0 6 2 10 4 10 3 0 8-4 11-10zm45 0c0-5-5-10-11-10-5 0-7 5-4 10 3 6 8 10 11 10 2 0 4-4 4-10zm-216-22c-3-4-9-8-15-8-5 0-9 4-9 8 0 5 7 9 15 9 8 0 12-4 9-9zm-349-18c3-5 1-10-4-10-6 0-11 5-11 10 0 6 2 10 4 10 3 0 8-4 11-10zm165-40c0-5-5-10-11-10-5 0-7 5-4 10 3 6 8 10 11 10 2 0 4-4 4-10zm120 0c0-5-5-10-11-10-5 0-7 5-4 10 3 6 8 10 11 10 2 0 4-4 4-10zm170 4c0-8-19-13-24-6-3 5 1 9 9 9 8 0 15-2 15-3zm27-16c2-17 0-19-7-8-5 8-6 18-4 22 8 12 10 10 11-14zm36-13c4-8 3-16-1-19-4-3-9 4-9 15-2 23 3 25 10 4zm-593-9c0-3-4-8-10-11-5-3-10-1-10 4 0 6 5 11 10 11 6 0 10-2 10-4zm195-6c3-5 1-10-4-10-6 0-11 5-11 10 0 6 2 10 4 10 3 0 8-4 11-10zm205 0c0-5-5-10-11-10-5 0-7 5-4 10 3 6 8 10 11 10 2 0 4-4 4-10zm114-2c-3-4-11-5-19-1-21 7-19 12 4 10 11 0 18-5 15-9zm-399-38c3-5 1-10-4-10-6 0-11 5-11 10 0 6 2 10 4 10 3 0 8-4 11-10zm125 0c0-5-2-10-4-10-3 0-8 5-11 10-3 6-1 10 4 10 6 0 11-4 11-10zm73-15c-7-21-12-19-10 4 0 11 5 18 9 15 4-3 5-11 1-19zm47 19c0-8-19-13-24-6-3 5 1 9 9 9 8 0 15-2 15-3zm154-2c2-4-5-9-17-9-17-2-19 0-7 7 18 12 18 12 24 2zm-314-42c0-5-2-10-4-10-3 0-8 5-11 10-3 6-1 10 4 10 6 0 11-4 11-10zm2e2 4c0-8-19-13-24-6-3 5 1 9 9 9 8 0 15-2 15-3zm120-4c0-5-5-10-11-10-5 0-7 5-4 10 3 6 8 10 11 10 2 0 4-4 4-10zm-563-29c0-11-5-18-9-15-4 3-5 11-1 19 7 21 12 19 10-4zm-42 0c3-5 2-12-3-15-5-3-9 1-9 9 0 17 3 19 12 6zm482-6c0-8-4-12-9-9-5 3-6 10-3 15 9 13 12 11 12-6zm-357-5c0-5-2-10-4-10-3 0-8 5-11 10-3 6-1 10 4 10 6 0 11-4 11-10zm220-14c0-2-7-7-16-10-8-3-12-2-9 4 6 10 25 14 25 6zm80 0c0-2-7-7-16-10-8-3-12-2-9 4 6 10 25 14 25 6zm165-6c-3-5-12-10-18-10-7 0-6 4 3 10 19 12 23 12 15 0zm-430-20c3-5 1-10-4-10-6 0-11 5-11 10 0 6 2 10 4 10 3 0 8-4 11-10zm320 0c3-5 1-10-4-10-6 0-11 5-11 10 0 6 2 10 4 10 3 0 8-4 11-10zm-480-39c-8-7-45-9-50-1-2 3 9 6 25 6 17 0 27-2 25-5zm320 0c-8-7-45-9-50-1-2 3 9 6 25 6 17 0 27-2 25-5zm238-26c4-8 3-16-1-19-4-3-9 4-9 15-2 23 3 25 10 4zm-533-10c0-7-30-13-34-7-3 4 4 9 15 9 10 1 19 0 19-2zm60-5c0-5-2-10-4-10-3 0-8 5-11 10-3 6-1 10 4 10 6 0 11-4 11-10zm2e2 6c0-3-4-8-10-11-5-3-10-1-10 4 0 6 5 11 10 11 6 0 10-2 10-4zm60-1c0-7-30-13-34-7-3 4 4 9 15 9 10 1 19 0 19-2zm60-5c0-5-2-10-4-10-3 0-8 5-11 10-3 6-1 10 4 10 6 0 11-4 11-10zm-380-45c0-2-9-3-19-2-11 0-18 5-15 9 4 6 34 0 34-7zm175 5c3-5 1-10-4-10-6 0-11 5-11 10 0 6 2 10 4 10 3 0 8-4 11-10zm145-5c0-2-9-3-19-2-11 0-18 5-15 9 4 6 34 0 34-7zm180 5c0-5-5-10-11-10-5 0-7 5-4 10 3 6 8 10 11 10 2 0 4-4 4-10zm-6e2-36c0-8-19-13-24-6-3 5 1 9 9 9 8 0 15-2 15-3zm160-4c0-5-5-10-11-10-5 0-7 5-4 10 3 6 8 10 11 10 2 0 4-4 4-10zm2e2.0c0-5-5-10-11-10-5 0-7 5-4 10 3 6 8 10 11 10 2 0 4-4 4-10zm-363-35c0-8-4-12-9-9-5 3-6 10-3 15 9 13 12 11 12-6zm78-4c3-5 2-12-3-15-5-3-9 1-9 9 0 17 3 19 12 6zm45 3c0-8-19-13-24-6-3 5 1 9 9 9 8 0 15-2 15-3zm360-4c0-5-5-10-11-10-5 0-7 5-4 10 3 6 8 10 11 10 2 0 4-4 4-10zm-216-22c-3-4-9-8-15-8-5 0-9 4-9 8 0 5 7 9 15 9 8 0 12-4 9-9zm-344-18c0-5-5-10-11-10-5 0-7 5-4 10 3 6 8 10 11 10 2 0 4-4 4-10zm515 0c3-5 1-10-4-10-6 0-11 5-11 10 0 6 2 10 4 10 3 0 8-4 11-10zm-395-40c0-5-5-10-11-10-5 0-7 5-4 10 3 6 8 10 11 10 2 0 4-4 4-10zm160 0c0-5-5-10-11-10-5 0-7 5-4 10 3 6 8 10 11 10 2 0 4-4 4-10zm115 0c3-5 1-10-4-10-6 0-11 5-11 10 0 6 2 10 4 10 3 0 8-4 11-10zm199 1c3-5-2-15-12-22-15-12-16-12-5 2 7 9 10 19 6 22-3 4-4 7 0 7 3 0 8-4 11-9zm-237-30c0-11-5-18-9-15-4 3-5 11-1 19 7 21 12 19 10-4zm-322-11c3-5 1-10-4-10-6 0-11 5-11 10 0 6 2 10 4 10 3 0 8-4 11-10zm289 2c3-5-1-9-9-9-8 0-12 4-9 9 3 4 7 8 9 8 2 0 6-4 9-8zm230-4c-3-4-11-5-19-1-21 7-19 12 4 10 11 0 18-5 15-9zm-94-18c0-5-4-10-10-10-5 0-10 5-10 10 0 6 5 10 10 10 6 0 10-4 10-10zm97-15c0-8-4-12-9-9-5 3-6 10-3 15 9 13 12 11 12-6zm-397-5c0-5-2-10-4-10-3 0-8 5-11 10-3 6-1 10 4 10 6 0 11-4 11-10zm75 0c3-5 1-10-4-10-6 0-11 5-11 10 0 6 2 10 4 10 3 0 8-4 11-10zm-295-22c0-4-4-8-9-8-6 0-12 4-15 8-3 5 1 9 9 9 8 0 15-4 15-9zm180-18c0-5-2-10-4-10-3 0-8 5-11 10-3 6-1 10 4 10 6 0 11-4 11-10zm80 0c0-5-5-10-11-10-5 0-7 5-4 10 3 6 8 10 11 10 2 0 4-4 4-10zm120 4c0-8-19-13-24-6-3 5 1 9 9 9 8 0 15-2 15-3zm210 0c0-8-19-13-24-6-3 5 1 9 9 9 8 0 15-2 15-3zm-213-39c0-8-4-12-9-9-5 3-6 10-3 15 9 13 12 11 12-6zm198 6c3-5 2-12-3-15-5-3-9 1-9 9 0 17 3 19 12 6zm-520-11c3-5 1-10-4-10-6 0-11 5-11 10 0 6 2 10 4 10 3 0 8-4 11-10zm405 0c0-5-2-10-4-10-3 0-8 5-11 10-3 6-1 10 4 10 6 0 11-4 11-10zm-485-32c5 4 5 1 1-6-6-10-11-10-22-1-8 6-14 14-14 16 0 3 6 0 13-6 8-6 18-7 22-3zm205-2c0-3-4-8-10-11-5-3-10-1-10 4 0 6 5 11 10 11 6 0 10-2 10-4zm115-6c3-5 1-10-4-10-6 0-11 5-11 10 0 6 2 10 4 10 3 0 8-4 11-10zm-318-35c0-8-4-12-9-9-5 3-6 10-3 15 9 13 12 11 12-6zm78-4c3-5 2-12-3-15-5-3-9 1-9 9 0 17 3 19 12 6zm45 3c0-8-19-13-24-6-3 5 1 9 9 9 8 0 15-2 15-3zm320-4c0-5-2-10-4-10-3 0-8 5-11 10-3 6-1 10 4 10 6 0 11-4 11-10zm115 0c3-5 1-10-4-10-6 0-11 5-11 10 0 6 2 10 4 10 3 0 8-4 11-10zm-635-40c0-5-5-10-11-10-5 0-7 5-4 10 3 6 8 10 11 10 2 0 4-4 4-10zm260 5c0-7-30-13-34-7-3 4 4 9 15 9 10 1 19 0 19-2zm335-5c3-5 1-10-4-10-6 0-11 5-11 10 0 6 2 10 4 10 3 0 8-4 11-10zm-475-40c0-5-5-10-11-10-5 0-7 5-4 10 3 6 8 10 11 10 2 0 4-4 4-10zm140-5c0-2-9-3-19-2-11 0-18 5-15 9 4 6 34 0 34-7zm110 9c0-8-19-13-24-6-3 5 1 9 9 9 8 0 15-2 15-3zm27-1c-4-3-1-13 6-22 11-14 10-14-5-2-16 12-16 31-1 31 4 0 3-3 0-7zm-237-37c0-3-4-8-10-11-5-3-10-1-10 4 0 6 5 11 10 11 6 0 10-2 10-4zm280-6c0-5-2-10-4-10-3 0-8 5-11 10-3 6-1 10 4 10 6 0 11-4 11-10zm-384-15c-1-8-5-17-8-21-5-4-4 16 1 34 3 9 9-1 7-13zm478-11c3-8 2-12-4-9-6 3-10 10-10 16 0 14 7 11 14-7zm-574-8c0-3-4-8-10-11-5-3-10-1-10 4 0 6 5 11 10 11 6 0 10-2 10-4zm315-6c3-5 1-10-4-10-6 0-11 5-11 10 0 6 2 10 4 10 3 0 8-4 11-10zm45 0c0-5-2-10-4-10-3 0-8 5-11 10-3 6-1 10 4 10 6 0 11-4 11-10zm155-29c3-5 2-12-3-15-5-3-9 1-9 9 0 17 3 19 12 6zm-475-11c0-5-2-10-4-10-3 0-8 5-11 10-3 6-1 10 4 10 6 0 11-4 11-10zm80 0c0-5-5-10-11-10-5 0-7 5-4 10 3 6 8 10 11 10 2 0 4-4 4-10zm120 0c0-5-5-10-11-10-5 0-7 5-4 10 3 6 8 10 11 10 2 0 4-4 4-10zm240 0c0-5-5-10-11-10-5 0-7 5-4 10 3 6 8 10 11 10 2 0 4-4 4-10zm-183-15c0-8-4-12-9-9-5 3-6 10-3 15 9 13 12 11 12-6z"/></g></svg>